<svg width="1189" height="470" viewBox="0 0 1189 470" fill="none" xmlns="http://www.w3.org/2000/svg">
<g clip-path="url(#clip0_1011_2)">
<path d="M418.92 112.6C434.13 112.6 448.23 114.5 461.24 118.31C474.23 122.11 485.41 127.58 494.76 134.71C504.11 141.84 511.4 150.56 516.63 160.86C521.86 171.16 524.47 182.97 524.47 196.28V350.8C524.47 358.73 521.69 364.51 516.15 368.15C510.6 371.8 504.34 373.62 497.37 373.62C490.39 373.62 484.13 371.8 478.59 368.15C473.04 364.51 470.27 358.72 470.27 350.8V338.44H469.79C467.25 343.84 463.61 348.59 458.85 352.7C454.1 356.82 448.39 360.63 441.73 364.11C435.39 367.28 428.1 369.81 419.86 371.72C411.61 373.62 403.37 374.57 395.14 374.57C366.61 374.57 344.66 368.08 329.29 355.08C313.91 342.09 306.23 323.7 306.23 299.93V292.32C306.23 281.55 307.89 271.56 311.22 262.36C314.55 253.17 320.09 245.17 327.86 238.35C335.62 231.54 345.76 226.23 358.29 222.42C370.81 218.62 386.42 216.72 405.12 216.72H465.03V210.06C465.03 193.89 461.3 182.25 453.86 175.12C446.41 167.99 434.6 164.42 418.44 164.42C396.88 164.42 376.6 170.12 357.58 181.53C351.24 185.34 344.98 186.37 338.8 184.62C332.62 182.88 327.63 178.84 323.82 172.49C320.33 166.47 318.98 160.21 319.78 153.71C320.57 147.22 324.13 141.9 330.48 137.78C341.89 130.17 355.28 124.07 370.66 119.47C386.03 114.91 402.12 112.6 418.92 112.6ZM406.56 262.85C390.71 262.85 379.7 265.87 373.52 271.88C367.34 277.91 364.25 285.99 364.25 296.13V297.08C364.25 315.47 376.14 324.66 399.91 324.66C418.61 324.66 433.35 321.5 444.13 315.15C451.74 310.72 457.21 305.49 460.53 299.46C463.86 293.44 465.52 285.36 465.52 275.21V262.85H406.56Z" fill="#66b6ff"/>
<path d="M874.89 17.9902C882.81 17.9902 889.79 20.0602 895.81 24.1702C901.83 28.2902 904.85 34.7902 904.85 43.6602V347.95C904.85 356.83 901.83 363.33 895.81 367.44C889.79 371.56 882.81 373.62 874.89 373.62C866.96 373.62 859.99 371.56 853.97 367.44C847.94 363.32 844.93 356.82 844.93 347.95V43.6602C844.93 34.7902 847.94 28.2902 853.97 24.1702C859.99 20.0502 866.97 17.9902 874.89 17.9902Z" fill="#66b6ff"/>
<path d="M1074.31 112.6C1091.42 112.6 1106.95 115.14 1120.9 120.21C1134.84 125.28 1146.89 132.57 1157.04 142.08C1167.18 151.59 1175.02 163.32 1180.57 177.26C1186.11 191.21 1188.89 207.22 1188.89 225.28V226.23C1188.89 241.13 1185.96 251.43 1180.1 257.13C1174.23 262.83 1163.7 265.69 1148.48 265.69H1013.45V266.64C1013.45 283.75 1018.75 297.71 1029.38 308.48C1040 319.26 1055.92 324.65 1077.16 324.65C1090.48 324.65 1102.12 323.63 1112.11 321.56C1122.09 319.5 1132.32 316.09 1142.78 311.34C1149.11 308.49 1155.3 308.09 1161.32 310.15C1167.34 312.21 1171.78 316.57 1174.63 323.23C1177.49 329.89 1178.12 336.31 1176.53 342.49C1174.94 348.67 1170.98 353.35 1164.64 356.52C1152.59 362.54 1139.44 367.06 1125.18 370.07C1110.92 373.08 1094.11 374.59 1074.78 374.59C1036.74 374.59 1007.27 364.21 986.35 343.45C965.43 322.69 954.97 291.55 954.97 250.02V237.66C954.97 196.46 965.58 165.32 986.82 144.23C1008.05 123.15 1037.22 112.6 1074.31 112.6ZM1073.35 162.05C1053.38 162.05 1038.41 167.28 1028.42 177.74C1018.44 188.2 1013.45 201.51 1013.45 217.68V221.01H1131.36V216.26C1131.36 200.73 1126.92 187.81 1118.05 177.51C1109.17 167.21 1094.28 162.05 1073.35 162.05Z" fill="#66b6ff"/>
<path d="M289.66 54.2002C288.88 52.6402 287.45 51.7402 285.74 51.7402H259.48C257.77 51.7402 256.34 52.6302 255.56 54.1902C255.03 55.2502 254.76 56.4602 254.76 57.7802C254.76 59.1002 255.03 60.3102 255.56 61.3702C256.34 62.9302 257.77 63.8202 259.48 63.8202H285.74C287.45 63.8202 288.88 62.9302 289.66 61.3702C290.19 60.3102 290.46 59.1002 290.46 57.7802C290.46 56.4702 290.19 55.2602 289.66 54.2002Z" fill="#66b6ff"/>
<path d="M279.2 27.43C279.02 26.21 278.52 25.05 277.7 23.98C276.88 22.91 275.89 22.11 274.76 21.62C273.19 20.93 271.54 21.12 270.14 22.16L246.9 39.32C245.49 40.36 244.82 41.93 245.06 43.62C245.23 44.84 245.74 46 246.56 47.08C247.38 48.15 248.37 48.95 249.5 49.44C250.12 49.71 250.75 49.85 251.38 49.85C252.34 49.85 253.27 49.53 254.13 48.9L277.37 31.73C278.77 30.69 279.44 29.12 279.2 27.43Z" fill="#66b6ff"/>
<path d="M252.54 2.33012C251.7 1.43012 250.61 0.780117 249.32 0.370117C248.03 -0.0298828 246.76 -0.109883 245.56 0.130117C243.88 0.470117 242.64 1.57012 242.09 3.23012L232.96 30.6601C232.41 32.3201 232.76 33.9901 233.93 35.2401C234.77 36.1401 235.86 36.7901 237.15 37.2001C237.95 37.4501 238.74 37.5701 239.51 37.5701C239.98 37.5701 240.45 37.5201 240.91 37.4301C242.59 37.0901 243.82 35.9801 244.37 34.3301L253.5 6.90012C254.07 5.25012 253.72 3.58012 252.54 2.33012Z" fill="#66b6ff"/>
<path d="M270.24 236.26C266.57 226.3 261.25 217.6 254.41 210.4C247.58 203.22 239.35 197.45 229.94 193.26C225.79 191.41 221.4 189.8 216.81 188.43C220.71 186.67 224.28 184.69 227.51 182.51C235.05 177.42 241.28 171.35 246.05 164.45C250.8 157.59 254.27 150.01 256.37 141.93C258.44 134.01 259.49 125.62 259.49 117.02V111.11C259.49 79.7399 249.57 56.1099 230 40.8899C210.81 25.9699 181.47 18.3999 142.79 18.3999H46.83C29.57 18.3999 17.72 21.7599 10.62 28.6899C3.47 35.6599 0 47.2999 0 64.3099V332.84C0 349.85 3.47 361.5 10.61 368.45C17.71 375.37 29.56 378.74 46.82 378.74H158.03C197.51 378.74 227.27 369.93 246.51 352.57C265.89 335.08 275.72 310.37 275.72 279.14V271.26C275.72 257.91 273.87 246.14 270.24 236.26ZM209.48 117.03C209.48 121.38 208.98 125.52 207.98 129.34C207.35 131.77 206.34 133.96 204.91 136.03C203.68 137.81 201.93 139.45 199.54 141.07C198.12 142.03 194.78 143.88 188.31 145.59C167.74 151 153.56 170.34 154.59 191.58C155.62 212.82 171.59 230.7 192.58 234.1C199 235.14 204.73 236.77 209.62 238.95C213.06 240.48 215.86 242.41 218.17 244.84C220.33 247.11 222.01 249.95 223.33 253.53C224.9 257.8 225.73 263.92 225.73 271.25V279.13C225.73 301.4 218.48 310.52 213.02 315.45C203.53 324.02 184.01 328.73 158.05 328.73C158.05 328.73 87.23 328.73 57.71 328.72C53.47 328.72 50.02 325.27 50.02 321.03C50.02 275.63 50.02 121.52 50.02 76.1199C50.02 71.8799 53.47 68.4299 57.71 68.4299C84.14 68.4199 142.67 68.4199 142.79 68.4199C168.94 68.4199 189.54 72.7799 199.3 80.3699C202.35 82.7399 204.43 85.5299 206.05 89.4099C208.33 94.8999 209.49 102.2 209.49 111.12V117.03H209.48Z" fill="#66b6ff"/>
<path d="M149.01 139.09C148.32 130.57 139.12 125.47 131.26 128.79L130.33 129.18C126.55 130.78 122.54 131.59 118.53 131.65C114.51 131.6 110.5 130.78 106.73 129.18L105.8 128.79C97.94 125.47 88.74 130.57 88.05 139.09C88.02 139.45 88.01 139.81 88.01 140.18V143.27C88.01 150.61 95.56 160.92 113.19 160.92H118.23H118.86H123.9C141.52 160.92 149.08 150.62 149.08 143.27V140.18C149.05 139.82 149.04 139.45 149.01 139.09Z" fill="#FFCE29"/>
<path d="M100.75 124C97.7 124 94.65 124.83 91.97 126.45C87.5 129.17 84.7 133.66 84.28 138.79C84.24 139.25 84.22 139.72 84.22 140.19V143.28C84.22 151.56 92.08 164.71 113.17 164.71H118.83C120.92 164.71 122.61 163.02 122.61 160.93C122.61 158.84 120.92 157.15 118.83 157.15H113.17C98.41 157.15 91.77 149.04 91.77 143.28V140.19C91.77 139.93 91.78 139.67 91.8 139.41C92.02 136.73 93.5 134.37 95.88 132.92C97.36 132.02 99.05 131.56 100.73 131.56C101.95 131.56 103.17 131.8 104.32 132.28L105.25 132.67C109.45 134.44 113.9 135.37 118.47 135.43C120.57 135.42 122.27 133.79 122.3 131.7C122.33 129.61 120.66 127.9 118.57 127.87C114.97 127.82 111.48 127.09 108.18 125.7L107.25 125.31C105.18 124.43 102.96 124 100.75 124Z" fill="#66b6ff"/>
<path d="M121.99 106.72C119.9 106.72 118.21 108.41 118.21 110.5V121.84C118.21 123.93 119.9 125.62 121.99 125.62C124.08 125.62 125.77 123.93 125.77 121.84V110.5C125.76 108.41 124.07 106.72 121.99 106.72Z" fill="#66b6ff"/>
<path d="M89.26 85.29C84.39 85.29 80.45 89.24 80.45 94.11V101.67C80.45 106.54 84.39 110.49 89.26 110.49C94.13 110.49 98.07 106.54 98.07 101.67V94.11C98.07 89.24 94.12 85.29 89.26 85.29Z" fill="#66b6ff"/>
<path d="M155.97 85.29C151.1 85.29 147.16 89.24 147.16 94.11V101.67C147.16 106.54 151.11 110.49 155.97 110.49C160.83 110.49 164.78 106.54 164.78 101.67V94.11C164.79 89.24 160.84 85.29 155.97 85.29Z" fill="#66b6ff"/>
<path d="M776.59 149.22C759.01 127.84 732.59 117 698.04 117C682.69 117 667.63 120.31 653.28 126.83C644.82 130.68 637.3 135.79 630.79 142.1C629.8 133.26 625.14 128.36 621.14 125.74C615.55 122.08 609.07 120.23 601.9 120.23C595.02 120.23 588.7 122.09 583.11 125.75C578.62 128.69 573.28 134.53 573.28 145.63V443.7C573.28 454.78 578.73 460.74 583.3 463.79C589.05 467.62 595.62 469.56 602.82 469.56C610.32 469.56 617.04 467.62 622.81 463.78C627.38 460.73 632.82 454.77 632.82 443.7V361C638.1 365.46 644.13 369.31 650.88 372.51C663.72 378.61 678.66 381.7 695.28 381.7C727.52 381.7 753.78 371.04 773.32 350.03C792.72 329.16 802.56 297.84 802.56 256.94V241.3C802.56 201.18 793.82 170.2 776.59 149.22ZM690.22 170.56C709.2 170.56 722.49 176.03 730.83 187.28C739.53 199.03 743.94 217.82 743.94 243.14V255.56C743.94 281.08 739.13 299.95 729.63 311.64C720.37 323.05 707.63 328.6 690.68 328.6C681.77 328.6 673.64 327.21 666.51 324.46C659.34 321.71 653.08 318.03 647.89 313.52C642.79 309.09 638.79 304.01 635.99 298.43C633.24 292.92 631.9 287.33 631.9 281.32V228.42C631.9 219.56 633.35 211.47 636.22 204.36C639.06 197.33 643.08 191.25 648.18 186.28C653.29 181.3 659.46 177.4 666.51 174.69C673.65 171.95 681.63 170.56 690.22 170.56Z" fill="#66b6ff"/>
</g>
<defs>
<clipPath id="clip0_1011_2">
<rect width="1188.89" height="469.56" fill="white"/>
</clipPath>
</defs>
</svg>
