<svg id="레이어_1" data-name="레이어 1" xmlns="http://www.w3.org/2000/svg" viewBox="0 0 500 499.5"><defs><style>.cls-1{fill:#66b6ff;}</style></defs><path class="cls-1" d="M463.1,479.9a16.4,16.4,0,0,1-12.1-5.3L283.1,301.7a46,46,0,0,0-66.2.1L50,474.5a16.7,16.7,0,0,1-12.2,5.3c-8.1,0-16.9-5.8-17.3-16.4V46.1c0-14.2,11.2-25.7,25-25.7h410c13.7,0,25,11.5,25,25.7V462.3a4.1,4.1,0,0,1-.1,1.1c-.4,10.7-9.2,16.5-17.3,16.5Z" transform="translate(-0.5 -0.4)"/><path class="cls-1" d="M455.5,40.4c2.7,0,5,2.5,5,5.7V455.7l-163.1-168a66.1,66.1,0,0,0-94.9.2L40.5,455.6V46.1c0-3.2,2.2-5.7,5-5.7h410m0-40H45.5C20.6.4.5,20.8.5,46.1V464.2c.9,21.7,18.8,35.6,37.3,35.6a36.5,36.5,0,0,0,26.6-11.4L231.3,315.7a25.5,25.5,0,0,1,18.7-8,25.8,25.8,0,0,1,18.7,7.9L436.6,488.5a36.3,36.3,0,0,0,26.5,11.4c18.5,0,36.4-13.9,37.3-35.6,0-.7.1-1.4.1-2V46.1c0-25.3-20.2-45.7-45-45.7Z" transform="translate(-0.5 -0.4)"/></svg>