<svg id="레이어_1" data-name="레이어 1" xmlns="http://www.w3.org/2000/svg" viewBox="0 0 500 500"><defs><style>.cls-1{fill:#66b4ff;}</style></defs><path class="cls-1" d="M397.8,295.1a102.7,102.7,0,0,0-92,57L167.7,274a86.9,86.9,0,0,0,3.1-23,89.1,89.1,0,0,0-2.5-20.8l143.6-70.7A102.3,102.3,0,1,0,300.8,137L158.6,207a85.2,85.2,0,1,0-1.2,90l140,79.1a102.7,102.7,0,1,0,100.4-81Zm-312.1,16A60.1,60.1,0,1,1,136,218.2h0a22.6,22.6,0,0,1,1.6,2.6h.1l1.4,2.5v.3l1.2,2.5.2.4a24.4,24.4,0,0,1,1,2.4l.2.5.9,2.4a1.4,1.4,0,0,0,.2.6c.2.8.5,1.6.7,2.4a1.4,1.4,0,0,0,.2.6l.6,2.5a4.3,4.3,0,0,0,.1.5l.6,3.1a73,73,0,0,1,.7,9.4,56.9,56.9,0,0,1-.9,10.2h0l-.6,3.1h0c-.3,1-.5,2-.8,2.9a.4.4,0,0,1-.1.3,27.6,27.6,0,0,1-.8,2.7v.4l-.9,2.5-.3.5-.9,2.2-.3.7-1.1,2.1-.3.7-1.2,2-.3.7-1.7,2.5A60,60,0,0,1,85.7,311.1Z" transform="translate(-0.5 -0.5)"/></svg>