<svg id="레이어_1" data-name="레이어 1" xmlns="http://www.w3.org/2000/svg" viewBox="0 0 498.8 498"><defs><style>.cls-1{fill:#66b6ff;}.cls-2{fill:#1E1E1E;}</style></defs><rect class="cls-1" x="72" y="194" width="220" height="30" rx="15"/><rect class="cls-1" x="72" y="249" width="220" height="30" rx="15"/><rect class="cls-1" x="72" y="304" width="172" height="30" rx="15"/><rect class="cls-1" x="72" y="359" width="108" height="30" rx="15"/><path class="cls-1" d="M291.6,146A62.5,62.5,0,0,1,354,208.4V417.6A62.5,62.5,0,0,1,291.6,480H82.4A62.5,62.5,0,0,1,20,417.6V208.4A62.5,62.5,0,0,1,82.4,146H291.6m0-20H82.4A82.4,82.4,0,0,0,0,208.4V417.6A82.4,82.4,0,0,0,82.4,500H291.6A82.4,82.4,0,0,0,374,417.6V208.4A82.4,82.4,0,0,0,291.6,126Z" transform="translate(0 -2)"/><path class="cls-1" d="M288.6,336.6a10.3,10.3,0,0,1-6.1-1.9l-49.4-35.2a10.4,10.4,0,0,1-4.3-6.8,10.6,10.6,0,0,1,1.8-7.8l194.2-273a10.8,10.8,0,0,1,8.6-4.4,10.4,10.4,0,0,1,6.1,2l49.4,35.2a10.4,10.4,0,0,1,4.3,6.8,10.9,10.9,0,0,1-1.8,7.8L297.2,332.2A10.5,10.5,0,0,1,288.6,336.6Z" transform="translate(0 -2)"/><path class="cls-2" d="M433.4,13a4.6,4.6,0,0,1,2.9,1l49.4,35.1a5,5,0,0,1,1.2,7L292.7,329a4.9,4.9,0,0,1-4.1,2.1,5.2,5.2,0,0,1-2.9-.9L236.3,295a5,5,0,0,1-1.2-7L429.3,15.1a5.2,5.2,0,0,1,4.1-2.1m0-11h0a15.9,15.9,0,0,0-13.1,6.8L226.2,281.7a15.9,15.9,0,0,0,3.7,22.3l49.5,35.2a15.9,15.9,0,0,0,9.2,2.9,16.1,16.1,0,0,0,13.1-6.7L495.8,62.5a16,16,0,0,0,2.8-12,15.5,15.5,0,0,0-6.5-10.3L442.6,5a16,16,0,0,0-9.2-3Z" transform="translate(0 -2)"/><path class="cls-1" d="M268.1,365.4a10.7,10.7,0,0,1-6-1.9l-49.5-35.2a10.5,10.5,0,0,1-2.5-14.6l6-8.4a10.5,10.5,0,0,1,8.5-4.4,10.4,10.4,0,0,1,6.1,2l49.4,35.2a10.4,10.4,0,0,1,2.5,14.6l-5.9,8.3A10.5,10.5,0,0,1,268.1,365.4Z" transform="translate(0 -2)"/><path class="cls-2" d="M224.6,306.4a4.6,4.6,0,0,1,2.9,1L277,342.5a5.1,5.1,0,0,1,1.1,7l-5.9,8.3a4.9,4.9,0,0,1-4.1,2.1,5.2,5.2,0,0,1-2.9-.9l-49.4-35.2a5.1,5.1,0,0,1-1.2-7l5.9-8.3a5.4,5.4,0,0,1,4.1-2.1m0-11h0a15.8,15.8,0,0,0-13,6.8l-5.9,8.3a15.7,15.7,0,0,0-2.8,11.9,15.9,15.9,0,0,0,6.5,10.4L258.9,368a15.9,15.9,0,0,0,9.2,2.9,16.1,16.1,0,0,0,13.1-6.7l5.9-8.3a16.1,16.1,0,0,0-3.8-22.3l-49.4-35.2a16.1,16.1,0,0,0-9.3-3Z" transform="translate(0 -2)"/><path class="cls-1" d="M207.2,405.5a15.6,15.6,0,0,1-15.5-17.1l4-42.1a15.6,15.6,0,0,1,24.6-11.2l34.4,24.5a15.6,15.6,0,0,1-2.5,26.9l-38.5,17.6A16.5,16.5,0,0,1,207.2,405.5Z" transform="translate(0 -2)"/><path class="cls-2" d="M211.2,337.7a10.1,10.1,0,0,1,5.9,1.9l17.2,12.2,17.2,12.3a10.1,10.1,0,0,1-1.6,17.4l-19.3,8.8-19.2,8.8a10.6,10.6,0,0,1-4.2.9,10.1,10.1,0,0,1-10-11.1l2-21,2-21.1a10,10,0,0,1,10-9.1m.1-11h0a21.1,21.1,0,0,0-21.1,19.1l-2,21.1-2,21a21.4,21.4,0,0,0,5.4,16.2,21.1,21.1,0,0,0,15.6,6.9,20.8,20.8,0,0,0,8.8-1.9l19.2-8.8,19.2-8.8a21.1,21.1,0,0,0,3.5-36.4l-17.2-12.2-17.3-12.3a21.3,21.3,0,0,0-12.1-3.9Z" transform="translate(0 -2)"/></svg>