<svg id="레이어_1" data-name="레이어 1" xmlns="http://www.w3.org/2000/svg" viewBox="0 0 500 500"><defs><style>.cls-1{fill:#1e1e1e;}</style></defs><path class="cls-1" d="M324.6,267.1a23.6,23.6,0,0,0,23.6-23.5V167.7a23.6,23.6,0,0,0-23.6-23.6H176.4a23.6,23.6,0,0,0-23.6,23.6v75.9a23.5,23.5,0,0,0,23.6,23.5ZM167.8,243.6V167.7a8.6,8.6,0,0,1,8.6-8.6H324.6a8.6,8.6,0,0,1,8.5,8.6v75.9a8.5,8.5,0,0,1-8.5,8.5H176.4A8.5,8.5,0,0,1,167.8,243.6Z" transform="translate(-0.5 -0.1)"/><path class="cls-1" d="M453.4,140h0V47.1A47.1,47.1,0,0,0,406.3.1H97.6a47,47,0,0,0-47,47V139H47.5a46.9,46.9,0,0,0-47,46.9V314.3a46.9,46.9,0,0,0,47,47H60.1A19.8,19.8,0,0,0,79,375.1h0a19.8,19.8,0,0,0,19.9-19.8V144.9A19.9,19.9,0,0,0,79,125.1h0a19.5,19.5,0,0,0-10.4,3v-81a29,29,0,0,1,29-29H406.3a29,29,0,0,1,29,29v84.3a19.4,19.4,0,0,0-13.4-5.3h0a19.8,19.8,0,0,0-19.8,19.8V356.3a19.7,19.7,0,0,0,19.8,19.8h0a19.8,19.8,0,0,0,18.4-12.5v89.6a28.9,28.9,0,0,1-29,28.9H370.2a29,29,0,0,1-29.1-28.9V414a15,15,0,0,0,10.1-14.1V383.7a46.9,46.9,0,0,0,25-41.5V157.1a47,47,0,0,0-28-43v-25a15.1,15.1,0,0,0-30.1,0v21H171.8a47.1,47.1,0,0,0-47.1,47V342.2a47,47,0,0,0,47.1,46.9H315.1v10.8a14.9,14.9,0,0,0,8,13.2v40.1a47,47,0,0,0,47.1,46.9h41.1a47,47,0,0,0,47.1-46.9V362a47,47,0,0,0,42.1-46.7V186.9A47,47,0,0,0,453.4,140ZM15.5,314.3V185.9a32,32,0,0,1,32-31.9H59.2V346.3H47.5A32,32,0,0,1,15.5,314.3ZM328.1,89.1a5.1,5.1,0,0,1,5-5,5,5,0,0,1,5,5V111a44.3,44.3,0,0,0-9-.9h-1ZM139.7,342.2V157.1a32.1,32.1,0,0,1,32.1-32H329.1a32.1,32.1,0,0,1,32.1,32V342.2a32,32,0,0,1-32.1,31.9H171.8A32,32,0,0,1,139.7,342.2Zm345.7-26.9a32,32,0,0,1-32,32H441.7V155h11.7a31.9,31.9,0,0,1,32,31.9Z" transform="translate(-0.5 -0.1)"/><path class="cls-1" d="M251,325.1a20,20,0,1,0,20,20A20.1,20.1,0,0,0,251,325.1Zm0,32a12,12,0,1,1,12-12A12,12,0,0,1,251,357.1Z" transform="translate(-0.5 -0.1)"/><path class="cls-1" d="M209.4,336.1a5.2,5.2,0,0,0-2.7.7l-3.1,1.8-3.1,1.7a5.5,5.5,0,0,0,0,9.5l3.1,1.8,3.1,1.8a5.2,5.2,0,0,0,2.7.7,5.5,5.5,0,0,0,5.5-5.5v-7.1A5.5,5.5,0,0,0,209.4,336.1Zm.5,9v3.5a.5.5,0,0,1-.5.5h-.2l-3.1-1.7-3.1-1.8c0-.1-.2-.1-.2-.4a.4.4,0,0,1,.2-.4l3.1-1.8,3.1-1.8h.2s.5,0,.5.4Z" transform="translate(-0.5 -0.1)"/><path class="cls-1" d="M301.4,340.3l-3.1-1.7-3-1.8a5.8,5.8,0,0,0-2.8-.7,5.5,5.5,0,0,0-5.5,5.4v7.1a5.5,5.5,0,0,0,5.5,5.5,5.8,5.8,0,0,0,2.8-.7l3-1.8,3.1-1.8A5.5,5.5,0,0,0,301.4,340.3Zm-2.5,5.2-3.1,1.8-3,1.7h-.3a.5.5,0,0,1-.5-.5v-7.1c0-.4.5-.4.5-.4h.3l3,1.8,3.1,1.8c.1,0,.2.1.2.4S299,345.4,298.9,345.5Z" transform="translate(-0.5 -0.1)"/><path class="cls-1" d="M333.1,283.1H171.8a5,5,0,0,0-5,5,5,5,0,0,0,5,5H333.1a5,5,0,0,0,5-5A5,5,0,0,0,333.1,283.1Z" transform="translate(-0.5 -0.1)"/><path class="cls-1" d="M282,302.1H171.8a5,5,0,0,0-5,5,5,5,0,0,0,5,5H282a5,5,0,0,0,5-5A5,5,0,0,0,282,302.1Z" transform="translate(-0.5 -0.1)"/><path class="cls-1" d="M333.1,301.1h-30a5,5,0,0,0-5,5,5,5,0,0,0,5,5h30a5,5,0,0,0,5-5A5,5,0,0,0,333.1,301.1Z" transform="translate(-0.5 -0.1)"/></svg>