<svg id="레이어_1" data-name="레이어 1" xmlns="http://www.w3.org/2000/svg" viewBox="0 0 500 500"><defs><style>.cls-1{fill:#1e1e1e;}</style></defs><polygon class="cls-1" points="396.8 249.9 412.2 240.2 401.7 223.8 386.3 233.4 396.8 249.9"/><polygon class="cls-1" points="417.8 282.9 433.2 273.2 422.7 256.7 407.3 266.4 417.8 282.9"/><polygon class="cls-1" points="375.8 216.9 391.2 207.3 380.7 190.8 365.3 200.4 375.8 216.9"/><polygon class="cls-1" points="333.7 151 349.1 141.3 338.6 124.8 323.2 134.5 333.7 151"/><polygon class="cls-1" points="354.7 183.9 370.1 174.3 359.6 157.8 344.2 167.5 354.7 183.9"/><path class="cls-1" d="M356.2,70.5,323.7,90.8a22.9,22.9,0,0,0-9.3,12.4,22.1,22.1,0,0,0-15.2,3.1L11.9,286.8c-11.1,6.9-13.8,22.3-6,34.4L111.8,487.5c7.7,12,22.9,16.2,34,9.3L433.1,316.3a22.2,22.2,0,0,0,9.3-12.4,22.1,22.1,0,0,0,15.2-3L490,280.5c11.1-6.9,13.8-22.4,6.1-34.5L390.1,79.8C382.4,67.7,367.2,63.5,356.2,70.5ZM480.7,255.7c1.7,2.8,1.1,6.3-1.4,7.9L446.9,284c-2.6,1.6-6,.6-7.8-2.2h0l-15.4,9.7h0c1.7,2.8,1.1,6.3-1.4,7.9L135,479.9c-2.5,1.6-6,.6-7.8-2.1L21.3,311.5a5.7,5.7,0,0,1,1.3-7.9L309.9,123.1a5.8,5.8,0,0,1,7.8,2.2l.6.9,15.4-9.7-.6-.9h0c-1.7-2.8-1.1-6.3,1.4-7.9l32.4-20.4a5.9,5.9,0,0,1,7.8,2.2Z" transform="translate(-0.5 -0.1)"/><polygon class="cls-1" points="337.6 57.8 322.2 67.5 329.7 79.2 345.1 69.6 337.6 57.8"/><path class="cls-1" d="M20.3,244.6c-1.8-2.8-1.2-6.4,1.3-7.9L308.9,56.2a5.7,5.7,0,0,1,7.8,2.1l.6.9,15.4-9.7-.6-.9h0a5.7,5.7,0,0,1,1.4-7.9l32.4-20.3a5.7,5.7,0,0,1,7.8,2.1l106,166.2c1.7,2.8,1.1,6.3-1.4,7.9l-5.9,3.7,10.7,16.9,5.9-3.7c11.1-6.9,13.8-22.4,6.1-34.4L389.1,12.8C381.4.7,366.2-3.4,355.2,3.5L322.7,23.9a22.3,22.3,0,0,0-9.3,12.3,22.1,22.1,0,0,0-15.2,3.1L10.9,219.8c-11.1,6.9-13.8,22.3-6,34.4l13.4,21.1,15.4-9.7Z" transform="translate(-0.5 -0.1)"/><path class="cls-1" d="M114.9,329.6a3.5,3.5,0,0,1,3.5-.5,6.1,6.1,0,0,1,2.8,2.5,6.3,6.3,0,0,1,1.1,3.6,3.9,3.9,0,0,1-1.9,3l-13.9,8.7,28.2,44.3a4.8,4.8,0,0,1,.6,4.3,7.8,7.8,0,0,1-3,3.3A6.9,6.9,0,0,1,128,400a4.2,4.2,0,0,1-3.6-2.4L96.2,353.3l-13.9,8.8a3.9,3.9,0,0,1-3.6.4,6.1,6.1,0,0,1-2.8-2.5,6.3,6.3,0,0,1-1.1-3.6,3.8,3.8,0,0,1,2-3Z" transform="translate(-0.5 -0.1)"/><path class="cls-1" d="M130.2,319.3a6.9,6.9,0,0,1,4.3-1.2q2.1,0,3.6,2.4l31.2,49a4.3,4.3,0,0,1,.6,4.3,7.8,7.8,0,0,1-3,3.3,6.9,6.9,0,0,1-4.3,1.2q-2.1,0-3.6-2.4l-31.2-49a4.3,4.3,0,0,1-.6-4.3A7.8,7.8,0,0,1,130.2,319.3Z" transform="translate(-0.5 -0.1)"/><path class="cls-1" d="M168.7,294.6a41.8,41.8,0,0,1,10.4-4.9,30.2,30.2,0,0,1,9-1.2,5,5,0,0,1,3.9,1.8,6.7,6.7,0,0,1,1.3,4.1,6.1,6.1,0,0,1-1.5,3.7,4.9,4.9,0,0,1-3.7,1.6,24.1,24.1,0,0,0-6.7,1,32,32,0,0,0-6.9,3.5c-4.5,2.7-7,6.4-7.6,10.8s1.4,10,5.7,16.9l1.1,1.7c4.3,6.7,8.5,10.8,12.7,12.3s8.6.8,13.4-2.1a27.2,27.2,0,0,0,6.4-5.4,25,25,0,0,0,4.1-6.4,5.7,5.7,0,0,1,2.9-3,5.6,5.6,0,0,1,4.2.1,6.7,6.7,0,0,1,3.3,3.1,5.5,5.5,0,0,1,0,4.7,30.2,30.2,0,0,1-5.8,8.9,45.1,45.1,0,0,1-9.3,7.6,35.7,35.7,0,0,1-11.2,4.8,22.7,22.7,0,0,1-10.7-.2,26.9,26.9,0,0,1-10.3-5.6,49.9,49.9,0,0,1-9.6-11.5l-2.1-3.3a53.7,53.7,0,0,1-6.3-13.5,25.8,25.8,0,0,1-.6-11.6,21.9,21.9,0,0,1,4.5-9.8A37.7,37.7,0,0,1,168.7,294.6Z" transform="translate(-0.5 -0.1)"/><path class="cls-1" d="M202,274.2a8.8,8.8,0,0,1,4.3-1.2,4.7,4.7,0,0,1,3.7,2.4l14,22.1,7.6-40a4.6,4.6,0,0,1,2.4-3.3,5.7,5.7,0,0,1,4.2-.5,6.1,6.1,0,0,1,3.6,2.2,4.4,4.4,0,0,1,.8,3.9l-6.1,29.6,34.6,11a5.4,5.4,0,0,1,3.6,2.9,6.9,6.9,0,0,1-2.7,8,5,5,0,0,1-4.5.3l-33.6-11.5-2.1,9.7,9.4,14.6a4.9,4.9,0,0,1,.6,4.3,6.8,6.8,0,0,1-3,3.3,7.7,7.7,0,0,1-4.3,1.3,4.7,4.7,0,0,1-3.7-2.4l-31.1-49a4.3,4.3,0,0,1-.6-4.3A7.3,7.3,0,0,1,202,274.2Z" transform="translate(-0.5 -0.1)"/><path class="cls-1" d="M283.3,224a3.5,3.5,0,0,1,3.5-.5,6.6,6.6,0,0,1,2.8,2.5,6.4,6.4,0,0,1,1,3.5,3.2,3.2,0,0,1-1.9,2.9l-24.1,15.1,9.7,15.1,22.4-14a3.3,3.3,0,0,1,3.4-.4,5.4,5.4,0,0,1,2.7,2.3,5.9,5.9,0,0,1,1,3.5,3.4,3.4,0,0,1-1.8,2.9L279.5,271,290,287.4,314.7,272a3.5,3.5,0,0,1,3.5-.4,6.2,6.2,0,0,1,2.7,2.4,5.9,5.9,0,0,1,1,3.5,3.4,3.4,0,0,1-1.9,3L292,298c-2.6,1.6-4.7,2.3-6.3,1.9s-3.2-1.7-4.7-4.2l-27.8-43.6c-1.5-2.5-2.1-4.5-1.8-6.1s1.9-3.2,4.5-4.8Z" transform="translate(-0.5 -0.1)"/><path class="cls-1" d="M333.5,192.5a3.7,3.7,0,0,1,3.5-.4,6.3,6.3,0,0,1,2.9,2.5,5.8,5.8,0,0,1,1,3.6,3.6,3.6,0,0,1-1.9,3l-13.9,8.6,28.2,44.3a4.3,4.3,0,0,1,.6,4.3,7.5,7.5,0,0,1-3,3.4,8.4,8.4,0,0,1-4.2,1.2,4.7,4.7,0,0,1-3.7-2.4l-28.2-44.3L300.9,225a3.7,3.7,0,0,1-3.6.5,6.6,6.6,0,0,1-2.8-2.5,6.2,6.2,0,0,1-1-3.6,3.6,3.6,0,0,1,1.9-3Z" transform="translate(-0.5 -0.1)"/></svg>