<svg id="레이어_1" data-name="레이어 1" xmlns="http://www.w3.org/2000/svg" viewBox="0 0 500 500"><defs><style>.cls-1{fill:#fff;}</style></defs><path class="cls-1" d="M83.5,91.8a9,9,0,0,1,4.8,1.5,8.2,8.2,0,0,1,3.2,5.3l9.2,39.1h.4L109.9,97c.5-2.4,1.6-3.9,3.2-4.6a8.8,8.8,0,0,1,5.1-.4,6.8,6.8,0,0,1,4.3,2.8,6.5,6.5,0,0,1,.5,5.4l-11.4,44.4c-.8,2.8-1.9,4.7-3.6,5.9a10.9,10.9,0,0,1-6.3,1.7,11.1,11.1,0,0,1-6.5-1.8,9.9,9.9,0,0,1-3.5-5.6l-8.3-34.2h-.5l-8.5,34.2a9,9,0,0,1-3.5,5.6,10.8,10.8,0,0,1-6.4,1.8,10.8,10.8,0,0,1-6.4-1.8,9,9,0,0,1-3.5-5.6L43.2,100.6a7,7,0,0,1,.5-5.6,6.6,6.6,0,0,1,4.6-3,10.1,10.1,0,0,1,5.5.4c1.7.7,2.8,2.4,3.3,4.9l8.1,40.4h.4l9.6-38.9a8.7,8.7,0,0,1,3.3-5.5A9.4,9.4,0,0,1,83.5,91.8Z" transform="translate(0.3 0.2)"/><path class="cls-1" d="M136.3,139.5a8.9,8.9,0,0,1,6.3,15.1,9.3,9.3,0,0,1-12.7,0,8.8,8.8,0,0,1,6.4-15.1Z" transform="translate(0.3 0.2)"/><path class="cls-1" d="M184.2,91.1a36.4,36.4,0,0,1,11.3,1.5,28.2,28.2,0,0,1,7.8,3.5,5.4,5.4,0,0,1,2.6,3.9,6.7,6.7,0,0,1-1.2,4.7,7.1,7.1,0,0,1-3.4,2.6,5.2,5.2,0,0,1-4.3-.7,24.4,24.4,0,0,0-12.8-3.2c-4.6,0-8,1.3-10.3,4.1s-3.4,7.1-3.4,12.9v2.8q0,8.2,3.6,12.6c2.4,2.9,5.8,4.3,10.2,4.3a28.3,28.3,0,0,0,13.7-3.2,6,6,0,0,1,4.5-.8,5.4,5.4,0,0,1,3.5,2.8,7.4,7.4,0,0,1,.9,4.6,4.9,4.9,0,0,1-2.6,4,29.7,29.7,0,0,1-8.6,3.6,46,46,0,0,1-11.5,1.3c-8.7,0-15.6-2.4-20.5-7.2s-7.4-12.2-7.4-22v-2.8c0-9.9,2.5-17.2,7.3-22.1S175.4,91.1,184.2,91.1Z" transform="translate(0.3 0.2)"/><path class="cls-1" d="M221.9,18.8a9.2,9.2,0,0,1,9.2,9.1V220.3a9.2,9.2,0,0,1-9.2,9.2H28a9.2,9.2,0,0,1-9.2-9.2V27.9A9.2,9.2,0,0,1,28,18.8H221.9m0-19H28A28.2,28.2,0,0,0-.3,27.9V220.3A28.2,28.2,0,0,0,28,248.4H221.9a28.1,28.1,0,0,0,28.2-28.1V27.9A28.1,28.1,0,0,0,221.9-.2Z" transform="translate(0.3 0.2)"/><path class="cls-1" d="M323.9,167.3a39.4,39.4,0,1,0-39.6-39.4A39.5,39.5,0,0,0,323.9,167.3Zm0-58.1a18.8,18.8,0,1,1-18.8,18.7A18.8,18.8,0,0,1,323.9,109.2Z" transform="translate(0.3 0.2)"/><path class="cls-1" d="M262.6,308.6a13.3,13.3,0,0,0,4.5-.8,12.4,12.4,0,0,0,8.2-7.3l37.4-92.4h22a12.4,12.4,0,1,0,0-24.7H304.4a12.3,12.3,0,0,0-9.9,4.9,11.6,11.6,0,0,0-2,3.2l-37.3,92.4H185a12.5,12.5,0,0,0-11.4,6.7L131,372.1H98.4a12.4,12.4,0,1,0,0,24.7H139a12.4,12.4,0,0,0,12.1-9.5l41.1-78.7Z" transform="translate(0.3 0.2)"/><path class="cls-1" d="M381.5,265c-2.3,0-4.6,0-7,.2l17.4-49.7h34a12.4,12.4,0,1,0,0-24.7H383.4A12.5,12.5,0,0,0,375,194a12.9,12.9,0,0,0-3.9,5.5l-24.7,70.7c-48.1,14.9-83,59.5-83,112.2a113.6,113.6,0,0,0,.9,14.4H201.8a12.5,12.5,0,0,0-12.5,12.4,10.7,10.7,0,0,0,.3,2.5v27.2a12.5,12.5,0,0,0,24.9,0V421.5h55.6a118,118,0,0,0,111.4,78.3c65.3,0,118.2-52.5,118.2-117.4S446.8,265,381.5,265Zm66,183a92.5,92.5,0,1,1,27.3-65.6A92.9,92.9,0,0,1,447.5,448Z" transform="translate(0.3 0.2)"/></svg>