<svg id="레이어_1" data-name="레이어 1" xmlns="http://www.w3.org/2000/svg" viewBox="0 0 500 500"><defs><style>.cls-1{fill:#1e1e1e;}</style></defs><path class="cls-1" d="M324.2,167.5a39.4,39.4,0,1,0-39.5-39.4A39.4,39.4,0,0,0,324.2,167.5Zm0-58.2a18.8,18.8,0,1,1-18.9,18.8A18.8,18.8,0,0,1,324.2,109.3Z" transform="translate(0.3 -0.4)"/><path class="cls-1" d="M262.9,309a11.3,11.3,0,0,0,4.5-.9,12.4,12.4,0,0,0,8.3-7.3l37.2-92.5h22a12.4,12.4,0,1,0,0-24.7H304.7a12.3,12.3,0,0,0-9.9,4.9,10.9,10.9,0,0,0-1.9,3.3l-37.3,92.4H185.5a12.1,12.1,0,0,0-11.4,6.6l-42.5,81.6H99a12.4,12.4,0,0,0,0,24.8h40.6a12.4,12.4,0,0,0,12-9.5l41-78.8Z" transform="translate(0.3 -0.4)"/><path class="cls-1" d="M381.7,265.3c-2.3,0-4.7,0-7,.2L392,215.8h34a12.4,12.4,0,0,0,0-24.8H383.5a12.3,12.3,0,0,0-8.3,3.2,12.9,12.9,0,0,0-3.9,5.5l-24.6,70.8c-48.1,14.9-83,59.6-83,112.3a116.4,116.4,0,0,0,.9,14.5H202.2a12.4,12.4,0,0,0-12.4,12.3,11.5,11.5,0,0,0,.3,2.6v27.2a12.4,12.4,0,0,0,24.8,0V422h55.6a118,118,0,0,0,111.2,78.4c65.2,0,118-52.6,118-117.6S446.9,265.3,381.7,265.3Zm65.9,183.2a93.2,93.2,0,0,1-159-65.7A93,93,0,0,1,381.7,290a92.9,92.9,0,0,1,65.9,27.2,92.6,92.6,0,0,1,0,131.3Z" transform="translate(0.3 -0.4)"/><path class="cls-1" d="M171.2,26.5H121.5V9.3c0-5.8-5.1-10-10.4-8.6l-96,25.4-1.7.7A16.8,16.8,0,0,0-.3,43.3V255.5a16.8,16.8,0,0,0,11.7,16,8.7,8.7,0,0,0,3.7,2.2l96,25.4c5.3,1.5,10.4-2.8,10.4-8.6V272.3h49.7A16.8,16.8,0,0,0,188,255.5V43.3A16.8,16.8,0,0,0,171.2,26.5Zm1.7,229a1.8,1.8,0,0,1-1.7,1.8H121.5V41.5h49.7a1.8,1.8,0,0,1,1.7,1.8Z" transform="translate(0.3 -0.4)"/></svg>