<svg id="레이어_1" data-name="레이어 1" xmlns="http://www.w3.org/2000/svg" viewBox="0 0 500 500"><defs><style>.cls-1{fill:#1e1e1e;}</style></defs><path class="cls-1" d="M309.7,139a42.9,42.9,0,1,0-43.1-42.8A43,43,0,0,0,309.7,139Zm0-63.2a20.4,20.4,0,1,1-20.5,20.4A20.4,20.4,0,0,1,309.7,75.8Z" transform="translate(-0.7 -0.8)"/><path class="cls-1" d="M243,292.8a13.4,13.4,0,0,0,4.9-1,13.6,13.6,0,0,0,9-7.9l40.5-100.5h24a13.5,13.5,0,1,0,0-26.9h-33a13.4,13.4,0,0,0-10.7,5.3,11.7,11.7,0,0,0-2.1,3.6L235,265.9H158.7a13.4,13.4,0,0,0-12.4,7.2L100,361.8H64.5a13.5,13.5,0,1,0,0,26.9h44.2a13.4,13.4,0,0,0,13.1-10.3l44.7-85.6Z" transform="translate(-0.7 -0.8)"/><path class="cls-1" d="M372.3,245.2c-2.6,0-5.1.1-7.6.3l18.8-54.1h37a13.5,13.5,0,1,0,0-26.9H374.3a13.9,13.9,0,0,0-9.1,3.5,12.9,12.9,0,0,0-4.2,6l-26.9,77c-52.3,16.2-90.2,64.7-90.2,122a133.9,133.9,0,0,0,.9,15.7H176.9a13.5,13.5,0,0,0-13.5,13.5,12.4,12.4,0,0,0,.3,2.7v29.6a13.5,13.5,0,0,0,27,0V415.6h60.5a128.3,128.3,0,0,0,121.1,85.2c70.9,0,128.4-57.2,128.4-127.8S443.2,245.2,372.3,245.2ZM444,444.4A100.6,100.6,0,1,1,473.7,373,101.2,101.2,0,0,1,444,444.4Z" transform="translate(-0.7 -0.8)"/><path class="cls-1" d="M180.8,16.2a7.5,7.5,0,0,1,7.5,7.4V180.1a7.5,7.5,0,0,1-7.5,7.4H23.6a7.4,7.4,0,0,1-7.4-7.4V23.6a7.4,7.4,0,0,1,7.4-7.4H180.8m0-15.4H23.6A22.9,22.9,0,0,0,.7,23.6V180.1a22.9,22.9,0,0,0,22.9,22.8H180.8a22.8,22.8,0,0,0,22.9-22.8V23.6A22.8,22.8,0,0,0,180.8.8Z" transform="translate(-0.7 -0.8)"/><path d="M104.7,29.8c8.8,0,16.3,1,22.6,3.1a42.5,42.5,0,0,1,15.4,8.7,32.1,32.1,0,0,1,9,13.1,44.8,44.8,0,0,1,2.9,16.5V74a47.2,47.2,0,0,1-3,16.8,37,37,0,0,1-9.3,13.9,45.9,45.9,0,0,1-15.5,9.4c-6.2,2.4-13.6,3.5-22.1,3.5h-29v45.3c0,3.8-1.3,6.7-3.9,8.4a16,16,0,0,1-9.1,2.6,16.2,16.2,0,0,1-9.1-2.6c-2.5-1.7-3.8-4.6-3.8-8.4V46.5c0-6.3,1.3-10.7,3.7-13.1s7-3.6,13.5-3.6Zm-29,66.1h25.6c8.5,0,15.2-1.6,20-4.8s7.3-9,7.3-17.5V71.4a22.9,22.9,0,0,0-1.8-9.8,15.8,15.8,0,0,0-5.2-6.2,21.3,21.3,0,0,0-8-3.2,52.7,52.7,0,0,0-10.1-.9H75.7Z" transform="translate(-0.7 -0.8)"/></svg>