<svg id="레이어_1" data-name="레이어 1" xmlns="http://www.w3.org/2000/svg" viewBox="0 0 500 500"><defs><style>.cls-1{fill:#fff;}</style></defs><path class="cls-1" d="M163.8,143.6a5.1,5.1,0,0,1-5-5.1V33.3a5.1,5.1,0,0,1,5-5.1,5,5,0,0,1,5,5.1V138.5A5,5,0,0,1,163.8,143.6Z" transform="translate(-0.3 0.1)"/><path class="cls-1" d="M163.8,370.2a5.1,5.1,0,0,1-5-5.1V205.5a5,5,0,0,1,5-5,5,5,0,0,1,5,5V365.1A5,5,0,0,1,163.8,370.2Z" transform="translate(-0.3 0.1)"/><path class="cls-1" d="M342.3,268.5a5.1,5.1,0,0,1-5-5.1V166.7a5,5,0,0,1,5-5,5,5,0,0,1,5,5v96.7A5,5,0,0,1,342.3,268.5Z" transform="translate(-0.3 0.1)"/><path class="cls-1" d="M342.3,109.3a5,5,0,0,1-5-5V55.9a5.1,5.1,0,0,1,5-5,5,5,0,0,1,5,5v48.4A5,5,0,0,1,342.3,109.3Z" transform="translate(-0.3 0.1)"/><path class="cls-1" d="M57.1,117.5c-6.7,0-13.8,5.3-13.8,15.1s7,14.7,13.8,14.7,14.1-5.2,14.1-14.7S63.9,117.5,57.1,117.5Z" transform="translate(-0.3 0.1)"/><path class="cls-1" d="M285.2,117.5c-6.7,0-13.8,5.3-13.8,15.1s7,14.7,13.8,14.7,14.1-5.2,14.1-14.7S292,117.5,285.2,117.5Z" transform="translate(-0.3 0.1)"/><path class="cls-1" d="M342.2,117.5c-6.6,0-13.8,5.3-13.8,15.1s7.1,14.7,13.8,14.7,14.1-5.2,14.1-14.7S349,117.5,342.2,117.5Z" transform="translate(-0.3 0.1)"/><path class="cls-1" d="M399.3,117.5c-6.7,0-13.8,5.3-13.8,15.1s7,14.7,13.8,14.7,14-5.2,14-14.7S406.1,117.5,399.3,117.5Z" transform="translate(-0.3 0.1)"/><path class="cls-1" d="M57.1,152c-6.7,0-13.8,5.3-13.8,15.2s7,14.6,13.8,14.6,14.1-5.1,14.1-14.6S63.9,152,57.1,152Z" transform="translate(-0.3 0.1)"/><path class="cls-1" d="M171.2,152c-6.7,0-13.8,5.3-13.8,15.2s7,14.6,13.8,14.6,14-5.1,14-14.6S178,152,171.2,152Z" transform="translate(-0.3 0.1)"/><path class="cls-1" d="M228.2,152c-6.7,0-13.8,5.3-13.8,15.2s7,14.6,13.8,14.6,14-5.1,14-14.6S235,152,228.2,152Z" transform="translate(-0.3 0.1)"/><path class="cls-1" d="M399.3,152c-6.7,0-13.8,5.3-13.8,15.2s7,14.6,13.8,14.6,14-5.1,14-14.6S406.1,152,399.3,152Z" transform="translate(-0.3 0.1)"/><path class="cls-1" d="M456.3,152c-6.7,0-13.8,5.3-13.8,15.2s7,14.6,13.8,14.6,14-5.1,14-14.6S463.1,152,456.3,152Z" transform="translate(-0.3 0.1)"/><path class="cls-1" d="M114.2,186.6c-6.7,0-13.8,5.3-13.8,15.1s7,14.6,13.8,14.6,14-5.1,14-14.6S121,186.6,114.2,186.6Z" transform="translate(-0.3 0.1)"/><path class="cls-1" d="M399.3,186.6c-6.7,0-13.8,5.3-13.8,15.1s7,14.6,13.8,14.6,14-5.1,14-14.6S406.1,186.6,399.3,186.6Z" transform="translate(-0.3 0.1)"/><path class="cls-1" d="M307.4,498.9h0a7.1,7.1,0,0,0,5.4-11.5c-17.1-21.1-77.7-90.6-98.1-115.8A14.4,14.4,0,0,1,236,352.4c12.5,12.6,25.1,25.2,37.6,37.9,2.5,2.4,5,4.5,8.7,3s4.7-4.9,4.7-8.8q-.2-72.9,0-145.8c0-10.1,6.9-17.1,16.3-16.5a14,14,0,0,1,13.6,14.1c.1,10.1,0,20.1,0,30.1v52.1c0,6.4,3.1,9,9.1,8.2a5.6,5.6,0,0,0,4.8-4.9c.3-3,.1-6,.2-9,.2-7.6,5.8-13.9,12.9-14.6s13.7,3.4,15.5,11.5a66.5,66.5,0,0,1,.9,7.8c.5,4.4,3,6.7,7.3,6.5s6.3-2.5,6.7-6.8c.7-8.9,6.5-14.8,14.6-14.8s13.5,5.3,14.5,14.5c.2,2,.1,4,.5,6,.7,3.7,3.3,5.6,7.2,5.4a6.4,6.4,0,0,0,6.4-6,36.5,36.5,0,0,1,.7-4.6c1.9-7.5,8.5-11.9,16.3-11a13.9,13.9,0,0,1,12.3,13.9c.2,15.1.1,30.1.1,45.1s.3,28.3-.3,42.4a76,76,0,0,1-16.7,44.4,16,16,0,0,0-3.9,11.2c.1,1.5.1,28.1.1,29.7a6.5,6.5,0,0,0,6.5,6.5h0a6.5,6.5,0,0,0,6.5-6.5v-.2c0-4.8-1.8-29.4,3.7-35.6,12.1-14,17-33.1,17.3-51.7.4-28.2.2-56.4,0-84.6a28.7,28.7,0,0,0-47.9-20.7c-13-16.2-31.2-15-42.6-5.1-14.1-13.5-19.4-14.7-37.9-8.6V283c0-15.8.1-31.5-.1-47.3s-12-27.3-26.8-27.7c-18.1-.5-30.5,12.3-30.5,30.1V369l-3.3-3.1c-8.7-8.5-17.3-17.3-26.3-25.6-10.8-9.9-27.6-9.3-38.4,1a28.1,28.1,0,0,0-2.7,37.9c14.8,18.7,29.5,37.5,44.5,56.1,9.8,12.3,43.8,48.6,53.9,61A7,7,0,0,0,307.4,498.9Z" transform="translate(-0.3 0.1)"/><path class="cls-1" d="M474.7,4.5a25.6,25.6,0,0,0-3.9.3L342.5,24.3a51.6,51.6,0,0,1-7.9.6,52.9,52.9,0,0,1-8-.7L174.9.5a55.2,55.2,0,0,0-8.1-.6,51.2,51.2,0,0,0-7.8.6L22.2,21.3A25.8,25.8,0,0,0,.3,46.9V399.8a25.7,25.7,0,0,0,29.6,25.6L159,405.8a51.2,51.2,0,0,1,7.8-.6,55.2,55.2,0,0,1,8.1.6l30.9,4.8a7.5,7.5,0,0,0,7-12l-.2-.2a7.1,7.1,0,0,0-4.6-2.7l-30.8-4.8a60,60,0,0,0-10.4-.8,67.3,67.3,0,0,0-10,.7L27.6,410.4l-1.6.2a10.8,10.8,0,0,1-10.7-10.8V46.9a10.8,10.8,0,0,1,9.1-10.7L161.2,15.4a36,36,0,0,1,5.6-.4,36.9,36.9,0,0,1,5.8.4L324.3,39.2a71.5,71.5,0,0,0,10.3.8,67.7,67.7,0,0,0,10.1-.8L473,19.7h1.7a10.7,10.7,0,0,1,10.6,10.8V383.3a10.9,10.9,0,0,1-9.1,10.7l-3.5.5a7.4,7.4,0,0,0-6.3,7.2v.2a7.4,7.4,0,0,0,8.5,7.5l3.5-.5a25.8,25.8,0,0,0,21.9-25.6V30.4A25.8,25.8,0,0,0,474.7,4.5Z" transform="translate(-0.3 0.1)"/></svg>