<svg id="레이어_1" data-name="레이어 1" xmlns="http://www.w3.org/2000/svg" viewBox="0 0 499 499"><defs><style>.cls-1{fill:#1e1e1e;}</style></defs><path class="cls-1" d="M287,96.1a47.8,47.8,0,1,0-47.8-47.7A47.7,47.7,0,0,0,287,96.1Zm0-70.5a22.8,22.8,0,1,1-22.8,22.8A22.8,22.8,0,0,1,287,25.6Z" transform="translate(0 -0.6)"/><path class="cls-1" d="M213,267.6a14,14,0,0,0,5.4-1,14.8,14.8,0,0,0,10-8.9l45-112.1H300a15,15,0,0,0,0-30H263.4a14.9,14.9,0,0,0-11.9,6,15.8,15.8,0,0,0-2.4,3.9l-45,112.1H119.5a15.1,15.1,0,0,0-13.9,8L54.3,344.6H15a15,15,0,0,0,0,30H64a14.9,14.9,0,0,0,14.5-11.5l49.6-95.5Z" transform="translate(0 -0.6)"/><path class="cls-1" d="M356.5,214.6c-2.9,0-5.7.1-8.5.3l20.9-60.3H410a15,15,0,0,0,0-30H358.6a15.1,15.1,0,0,0-10,3.9,14.6,14.6,0,0,0-4.7,6.7L314.1,221A143.4,143.4,0,0,0,215,374.6H139.6a15.1,15.1,0,0,0-15,15,15.5,15.5,0,0,0,.4,3.1v32.9a15,15,0,0,0,30,0v-21h67.1a142.5,142.5,0,1,0,134.4-190ZM436,436.7a112.4,112.4,0,1,1,33-79.6A111.8,111.8,0,0,1,436,436.7Z" transform="translate(0 -0.6)"/></svg>