<?xml version="1.0" encoding="utf-8"?>
<!-- Generator: Adobe Illustrator 25.2.2, SVG Export Plug-In . SVG Version: 6.00 Build 0)  -->
<svg version="1.1" id="레이어_1" xmlns="http://www.w3.org/2000/svg" xmlns:xlink="http://www.w3.org/1999/xlink" x="0px"
	 y="0px" viewBox="0 0 500 500" style="enable-background:new 0 0 500 500;" xml:space="preserve">
<style type="text/css">
	.st0{fill:#D4D4D8;}
</style>
<path class="st0" d="M250,0C111.9,0,0,111.9,0,250s111.9,250,250,250s250-112,250-250S388.1,0,250,0z M165.7,50.2
	c26.7-11.3,55.4-17.1,84.4-17c119.8,0.1,216.8,97.2,216.8,217c0,28.9-5.8,57.5-17,84.1c-10.8,25.8-26.6,49.2-46.5,68.9
	c-84.7,84.6-222,84.5-306.6-0.3S12.2,181,97,96.4C116.7,76.7,140,61,165.7,50.2z"/>
<circle class="st0" cx="250" cy="250" r="23.5"/>
<path class="st0" d="M437.3,260H290.8c-5.5,0-10-4.5-10-10s4.5-10,10-10h146.5c5.5,0,10,4.5,10,10S442.8,260,437.3,260z"/>
<path class="st0" d="M250,221.1c-6.9,0-12.5-5.6-12.5-12.5v-60.8c0-6.9,5.6-12.5,12.5-12.5s12.5,5.6,12.5,12.5v60.8
	C262.5,215.5,256.9,221.1,250,221.1z"/>
</svg>
