<svg id="레이어_1" data-name="레이어 1" xmlns="http://www.w3.org/2000/svg" viewBox="0 0 500 500"><defs><style>.cls-1{fill:#d9d9d9;}</style></defs><path class="cls-1" d="M249.9,20.3A230.1,230.1,0,0,1,461.8,339.8a226.2,226.2,0,0,1-49.3,73.1A230,230,0,1,1,160.4,38.3a227.9,227.9,0,0,1,89.5-18m0-20C111.8.3-.1,112.2-.1,250.3s111.9,250,250,250,250-112,250-250S388,.3,249.9.3Z" transform="translate(0.1 -0.3)"/><circle class="cls-1" cx="250" cy="250" r="23.5"/><path class="cls-1" d="M397.7,260.3h-107a10,10,0,0,1,0-20h107a10,10,0,0,1,0,20Z" transform="translate(0.1 -0.3)"/><path class="cls-1" d="M249.9,221.4a12.5,12.5,0,0,1-12.5-12.5V166a12.5,12.5,0,1,1,25,0v42.9A12.5,12.5,0,0,1,249.9,221.4Z" transform="translate(0.1 -0.3)"/><path class="cls-1" d="M249.7,35.5H234.9a214.3,214.3,0,0,0-37.8,6h-.8A7.5,7.5,0,0,0,198.1,57a5.8,5.8,0,0,0,1.9-.3,202.6,202.6,0,0,1,49.7-6.2h1A202.3,202.3,0,0,1,300.4,57l1.9.2a7.5,7.5,0,0,0,1.9-14.7l-1.1-.3h-3.7a213.7,213.7,0,0,0-36.1-5.4h-4l-8.5-.2h-1.1ZM149.8,61.1a8,8,0,0,0-3.6.9,223.7,223.7,0,0,0-43.3,31.4h0l-.2.3h-.1a7.5,7.5,0,0,0,5.2,13,7.3,7.3,0,0,0,5.1-2.1,200.3,200.3,0,0,1,40.5-29.4,7.5,7.5,0,0,0-3.6-14.1ZM74.6,131.7a7.3,7.3,0,0,0-6.3,3.5c-1.2,1.8-2.4,3.7-3.5,5.7h-.3v.2h-.8v.2h0l-.2.2h0l-.2.2h0a220.3,220.3,0,0,0-17.8,40.3,7.4,7.4,0,0,0,4.8,9.4,5.9,5.9,0,0,0,2.3.4,7.4,7.4,0,0,0,7.1-5.2,201.8,201.8,0,0,1,21.4-45.3,7.4,7.4,0,0,0-2.3-10.3,7.2,7.2,0,0,0-4-1.2Zm-32,98a7.4,7.4,0,0,0-7.4,7c-.2,3.1-.4,6.1-.4,9.2h0v.4h0v.3h0v.2h0v.2h0v.2h-.1v.2h.2v.2H35v.3h.1v.2h0v.3h.2v.2h0v.2h.5v.3h0a.4.4,0,0,1,.1.3h0a.4.4,0,0,1,.1.3h.2v.4h.1a1.3,1.3,0,0,0,.1.6h0c0,.2.1.4.1.6h0c.5,3.8,1.1,7.6,1.9,11.4a7.4,7.4,0,0,0,7.3,6.1h1.4a7.5,7.5,0,0,0,6-8.8,200.4,200.4,0,0,1-3.5-37.2c0-4.3.2-8.6.4-12.8a7.5,7.5,0,0,0-7-8ZM61.8,331.1a7.1,7.1,0,0,0-3.2.7,7.5,7.5,0,0,0-3.6,9.9c1.4,3,2.9,6,4.4,8.9h0l.2.3h0v.2h.1v.2h0v.2h1.3v.2h.5v.2h.1c0,.1.1.2.1.3h0l.2.3h0a214.2,214.2,0,0,0,12,18.8h0l.2.2h1.7v.2h.1c.1,0,.1.1.2.2h0c2.3,3.1,4.7,6.2,7.1,9.2a7.6,7.6,0,0,0,5.8,2.7,7.8,7.8,0,0,0,4.8-1.7,7.6,7.6,0,0,0,1-10.6,198.9,198.9,0,0,1-26.8-42.3,7.6,7.6,0,0,0-6.8-4.3Zm65.7,79.6a7.5,7.5,0,0,0-4.5,13.5,214.4,214.4,0,0,0,47.1,26.1,7.2,7.2,0,0,0,2.8.5,7.5,7.5,0,0,0,2.8-14.4,199.6,199.6,0,0,1-43.8-24.3,7.4,7.4,0,0,0-4.4-1.4Zm95.7,38.1a7.5,7.5,0,0,0-.9,15h40.9c4.4-.3,8.7-.7,13-1.2a7.5,7.5,0,0,0-1-14.9h-.9a200.6,200.6,0,0,1-24.6,1.5,197.3,197.3,0,0,1-25.5-1.6Zm148-37.5a7.2,7.2,0,0,0-4.4,1.4,201.5,201.5,0,0,1-43.9,24,7.5,7.5,0,0,0,2.7,14.5,9.2,9.2,0,0,0,2.8-.5,216.2,216.2,0,0,0,47.2-25.9,7.5,7.5,0,0,0-4.4-13.5Zm66-79.3a7.4,7.4,0,0,0-6.7,4.3,203.2,203.2,0,0,1-27,42.2,7.5,7.5,0,0,0,5.7,12.3,7.8,7.8,0,0,0,5.8-2.7c2.8-3.4,5.6-7,8.2-10.5h0l.2-.3h0c.1-.1.2-.2.2-.3h0l.2-.2h.3v-.2h1.5v-.2h.3v-.2h.3v-.2h.1v-.2h0l1.2-1.8h0c3.3-4.8,6.3-9.8,9.2-14.9h0l.2-.2h0v-.2h.1V355h0v-.2h1.1v-.2h.2l.2-.3h0c1.6-3,3.2-6,4.6-9.1a7.5,7.5,0,0,0-3.5-10,7.8,7.8,0,0,0-3.3-.7Zm19.7-101.3h-.5a7.6,7.6,0,0,0-7,8c.2,3.9.3,7.9.3,11.8a202.7,202.7,0,0,1-3.6,38.2,7.5,7.5,0,0,0,5.9,8.8h1.5a7.5,7.5,0,0,0,7.3-6.1,173.5,173.5,0,0,0,2.7-17.8h0a3.8,3.8,0,0,0,.1-1h.1a1.1,1.1,0,0,1,.1-.5h.1v-.3h.3v-.3h.1v-.3h.1v-.4h.1v-.3h0v-.2h.1v-.3h0v-.2h0v-.2h0v-.2h0V247h0v-.3h0v-.4h0V245h0a24.4,24.4,0,0,1-.1-2.7h0v-.7h0a1.3,1.3,0,0,1-.1-.6h0v-.3h0v-.2h0v-1a7.6,7.6,0,0,0-7.5-7.1Zm-31.5-98.2a7.5,7.5,0,0,0-6.3,11.5,201.5,201.5,0,0,1,21.1,45.4,7.6,7.6,0,0,0,7.2,5.2l2.3-.3a7.5,7.5,0,0,0,4.8-9.4l-1.5-4.7h0a.4.4,0,0,1-.1-.3h-.1v-.3h0v-.3h0v-.2h0a.4.4,0,0,1-.1-.3h0a.4.4,0,0,1-.1-.3h-.1v-.2h0v-.2h0v-.2h-.1v-.2h-2.7v-.2h0a.4.4,0,0,1-.1-.3h0l-.2-.3h0v-.2h0a.4.4,0,0,1-.1-.3h0A219.1,219.1,0,0,0,431.8,136a7.8,7.8,0,0,0-6.4-3.5ZM350.5,61.6a7.5,7.5,0,0,0-3.6,14,206.2,206.2,0,0,1,40.4,29.7,7.3,7.3,0,0,0,5.1,2.1,7.5,7.5,0,0,0,5.2-13,219.7,219.7,0,0,0-43.4-31.9,8.1,8.1,0,0,0-3.7-.9Z" transform="translate(0.1 -0.3)"/></svg>