<?xml version="1.0" encoding="utf-8"?>
<!-- Generator: Adobe Illustrator 25.2.2, SVG Export Plug-In . SVG Version: 6.00 Build 0)  -->
<svg version="1.1" id="레이어_1" xmlns="http://www.w3.org/2000/svg" xmlns:xlink="http://www.w3.org/1999/xlink" x="0px"
	 y="0px" viewBox="0 0 500 500" style="enable-background:new 0 0 500 500;" xml:space="preserve">
<style type="text/css">
	.st0{fill:#D4D4D8;}
</style>
<path class="st0" d="M490.1,379.7L390.5,280c-13.1-13.2-34.5-13.2-47.8-0.1l-41.6,41.6L178.4,198.9l41.6-41.6
	c13.2-13.2,13.2-34.6,0.1-47.8L120.4,9.9c-6.3-6.3-15-9.9-23.9-9.9c0,0-0.1,0-0.1,0c-8.9,0-17.6,3.6-23.8,9.9L26.8,55.6
	C9.5,72.8,0,95.8,0,120.2c0,24.4,9.5,47.4,26.7,64.7l288.2,288.3c17.8,17.8,41.3,26.7,64.7,26.7c23.4,0,46.9-8.9,64.7-26.7
	l45.7-45.7c6.4-6.4,9.9-14.9,9.9-23.9C500,394.6,496.5,386.1,490.1,379.7z M197.8,135.2l-41.9,41.9c-11.8,12-11.8,31.5,0,43.5
	L279.3,344c5.8,5.8,13.6,9,21.8,9c0,0,0,0,0,0c8.1,0,16-3.3,21.7-9l41.8-41.9c1.1-1,2.8-1,3.8,0l99.5,99.6c1,1,1,2.6,0,3.6
	l-45.7,45.7c-11.3,11.4-26.4,17.7-42.4,17.7c-0.1,0-0.1,0-0.2,0c-16,0-31-6.2-42.3-17.5L48.9,162.9c-23.5-23.5-23.5-61.8,0-85.3
	L94.6,32c0.5-0.5,1.1-0.7,1.8-0.7c0,0,0,0,0,0h0.1c0.7,0,1.4,0.3,1.9,0.7l99.5,99.6c0.6,0.6,0.7,1.4,0.7,1.8
	C198.6,133.8,198.5,134.5,197.8,135.2z"/>
</svg>
