<svg id="레이어_1" data-name="레이어 1" xmlns="http://www.w3.org/2000/svg" viewBox="0 0 500 500"><defs><style>.cls-1{fill:#d9d9d9;}</style></defs><path class="cls-1" d="M92.8,20.3A8.8,8.8,0,0,1,99,22.8l101.9,102a8.6,8.6,0,0,1,0,12.2L158,179.9a25.7,25.7,0,0,0,0,36.1L284.3,342.3a25.8,25.8,0,0,0,18.1,7.5,25.3,25.3,0,0,0,18-7.5l42.9-42.9a8.8,8.8,0,0,1,12.3,0l101.9,102a8.6,8.6,0,0,1,0,12.2l-46.8,46.8a67.5,67.5,0,0,1-95.7,0L39.9,165.4a67.8,67.8,0,0,1,0-95.8L86.7,22.8a8.6,8.6,0,0,1,6.1-2.5m0-20A28.5,28.5,0,0,0,72.6,8.7L25.8,55.5h0a87.6,87.6,0,0,0,0,124l295,295.1a87.8,87.8,0,0,0,124.1,0h0l46.8-46.8a28.6,28.6,0,0,0,0-40.5l-102-102a28.6,28.6,0,0,0-40.5,0l-42.9,42.9a5.6,5.6,0,0,1-7.8,0L172.2,201.9a5.4,5.4,0,0,1,0-7.8l42.9-42.9a28.7,28.7,0,0,0,0-40.6L113.1,8.7A28.5,28.5,0,0,0,92.8.3Z" transform="translate(-0.1 -0.3)"/></svg>