<svg id="레이어_1" data-name="레이어 1" xmlns="http://www.w3.org/2000/svg" viewBox="0 0 500 500"><defs><style>.cls-1{fill:#d9d9d9;}.cls-2{fill:#fff;}</style></defs><path class="cls-1" d="M250.4,15.2c46.6,0,90.4,20,123.2,56.2a196.7,196.7,0,0,1,50.2,131.2c0,65.2-78.7,185.9-146,269.5a35.2,35.2,0,0,1-54.8,0C155.6,388.5,77,267.8,77,202.6a196.1,196.1,0,0,1,13.4-71.3,192.8,192.8,0,0,1,36.8-59.9C160,35.2,203.8,15.2,250.4,15.2m0,315.9c77.9,0,141.3-63.3,141.3-141.2S328.3,48.6,250.4,48.6,109.1,112,109.1,189.9s63.4,141.2,141.3,141.2M250.4.2C143.4.2,62,95.7,62,202.6c0,76.1,92.7,208.7,149.3,278.9a50.2,50.2,0,0,0,78.2,0C346,411.3,438.8,278.7,438.8,202.6,438.8,95.7,357.3.2,250.4.2Zm0,315.9A126.3,126.3,0,1,1,376.7,189.9,126.2,126.2,0,0,1,250.4,316.1Z" transform="translate(-0.4 -0.2)"/><rect class="cls-2" y="208.1" width="44.1" height="74"/><rect class="cls-2" x="455.9" y="208.1" width="44.1" height="74"/></svg>