<svg id="레이어_1" data-name="레이어 1" xmlns="http://www.w3.org/2000/svg" viewBox="0 0 500 500"><defs><style>.cls-1{fill:#d4d4d8;}.cls-2{fill:#fff;}</style></defs><path class="cls-1" d="M385.6,61.6C349.6,21.9,301.4,0,250,0S150.4,21.9,114.4,61.6C79.9,99.8,60,151.5,60,203.6,60,292.7,182.4,449,207,479.4a54.8,54.8,0,0,0,37.1,20.3q3,.3,6,.3A54.4,54.4,0,0,0,293,479.4c24.6-30.5,147-187,147-275.8C440,151.5,420.1,99.8,385.6,61.6ZM271.8,462.3a28.1,28.1,0,0,1-39.4,4.2,41.6,41.6,0,0,1-4.2-4.2C191.6,416.9,157.8,368.2,133,325c-29.9-51.9-45.7-93.9-45.7-121.4A183.9,183.9,0,0,1,100,136.4,181,181,0,0,1,134.6,80C165.4,46,206.4,27.3,250,27.3S334.6,46,365.4,80a185.3,185.3,0,0,1,47.3,123.6C412.7,265.4,336.8,381.5,271.8,462.3Z"/><path class="cls-1" d="M250,47.2c-79.4,0-144,64.6-144,144s64.6,144,144,144,144-64.6,144-144S329.4,47.2,250,47.2Zm.1,260.7H250A116.9,116.9,0,0,1,133.2,191.1c0-64.4,52.4-116.7,116.8-116.7s116.8,52.3,116.8,116.7h0C366.8,255.5,314.4,307.9,250.1,307.9Z"/><rect class="cls-2" y="208.1" width="44.1" height="74"/><rect class="cls-2" x="455.9" y="208.1" width="44.1" height="74"/></svg>