<?xml version="1.0" encoding="utf-8"?>
<!-- Generator: Adobe Illustrator 25.2.2, SVG Export Plug-In . SVG Version: 6.00 Build 0)  -->
<svg version="1.1" id="레이어_1" xmlns="http://www.w3.org/2000/svg" xmlns:xlink="http://www.w3.org/1999/xlink" x="0px"
	 y="0px" viewBox="0 0 500 500" style="enable-background:new 0 0 500 500;" xml:space="preserve">
<style type="text/css">
	.st0{fill:#D4D4D8;}
</style>
<path class="st0" d="M488.7,190.4l-49.2-44V69.2c0-18.3-13.4-33.1-29.8-33.1h-9.6c-16.5,0-29.9,14.9-29.9,33.1v15.3l-74.1-66.4
	C283.1,6.4,266.7,0,250,0c-16.7,0-33.1,6.4-46.2,18.1L11.3,190.4c-12.8,11.5-15,32.5-4.9,46.9l16.7,23.9
	c5.1,7.3,12.5,11.9,20.8,12.8c8,0.9,15.9-1.6,22.2-7.2l2.9-2.6v218.7c0.1,9.5,7.9,17.3,17.4,17.3c0,0,0.1,0,0.1,0h327.1
	c0,0,0.1,0,0.1,0c4.6,0,8.9-1.8,12.2-5c3.3-3.3,5.2-7.6,5.2-12.3V264.1l2.9,2.6c6.3,5.6,14.1,8.2,22.2,7.2c8.3-1,15.7-5.5,20.8-12.8
	l16.7-23.9C503.7,222.8,501.5,201.8,488.7,190.4z M291.9,263h-83.4c-16.4,0-29.8,14.9-29.8,33.1v177.7H93.1V242.4l143.7-128.6
	l0.1-0.1c7.3-6.9,18.8-6.9,26.1,0l143.9,128.6v231.4h-85.1V296.1C321.8,277.9,308.4,263,291.9,263z M203,296.1
	c0-3.7,2.6-6.9,5.5-6.9h83.4c3,0,5.6,3.2,5.6,6.9v177.7H203V296.1z M415.3,69.2v55.5L394.5,106V69.2c0-3.7,2.6-6.9,5.6-6.9h9.6
	C412.7,62.3,415.3,65.6,415.3,69.2z"/>
</svg>
