<svg id="레이어_1" data-name="레이어 1" xmlns="http://www.w3.org/2000/svg" viewBox="0 0 500 500"><defs><style>.cls-1{fill:#d9d9d9;}</style></defs><path class="cls-1" d="M490.2,192.7l-51.6-46.1V66c0-16-11.6-29.2-25.8-29.2H403c-14.2,0-25.9,13.2-25.9,29.2V91.6L294.2,17.3c-25.8-23-62.2-23-88,0L10.2,192.7c-11.4,10.2-13.4,28.9-4.3,41.8l17,24.3c9,12.9,25.6,15.1,37,4.9l10.5-9.4V486.9A13.2,13.2,0,0,0,83.7,500h333A13.2,13.2,0,0,0,430,486.9V254.3l10.5,9.4c11.4,10.2,28,8,37-4.9l17-24.3C503.5,221.6,501.6,202.9,490.2,192.7ZM392.8,66c0-6.2,4.6-11.5,10.2-11.5h9.8c5.5,0,10.2,5.3,10.2,11.5v66.6l-30.2-27.1ZM303.1,482.4H197.9V297c0-6.2,4.6-11.5,10.1-11.5h84.9c5.6,0,10.2,5.3,10.2,11.5Zm111.3,0H318.8V297c0-16-11.7-29.2-25.9-29.2H208c-14.2,0-25.8,13.2-25.8,29.2V482.4H86V240.3L233.8,108.1a23.9,23.9,0,0,1,32.7,0L414.4,240.3Z" transform="translate(-0.2 0)"/></svg>