<svg id="레이어_1" data-name="레이어 1" xmlns="http://www.w3.org/2000/svg" viewBox="0 0 500 500"><defs><style>.cls-1{fill:#d9d9d9;}</style></defs><path class="cls-1" d="M265.3,499.9H234a18.7,18.7,0,0,0-3.2-.8c-50.9-3.9-96.5-21.6-136.3-53.5C45.3,406.2,14.8,355.3,3.5,293c-1.7-9-2.6-18.2-3.8-27.4V234.4l.9-5.3C1.7,220.6,2.4,212,4,203.6,17.4,136.7,52,83.3,108,44.4S224.6-7.4,290.7,3.6,408.5,46.5,448.4,98.8c41.7,54.7,57.8,116.8,48.9,184.9-6.5,50.2-27.2,94.4-60.9,132.1Q378.7,480.4,293.2,496C284,497.7,274.6,498.6,265.3,499.9ZM130,238.8H238.5v-108l-2.3-.3H151.9c-3.3,0-4,1.7-4.8,4.2a351.8,351.8,0,0,0-14.4,69.5C131.4,215.5,130.9,227,130,238.8Zm108.6,22.3H131a2.5,2.5,0,0,0-.5,1.1c0,1.3-.1,2.6,0,3.9a380.6,380.6,0,0,0,16.2,98.2c1.2,3.9,2.8,5.4,7,5.3,26.5-.2,53-.1,79.5-.1l5.4-.2ZM368.7,239c.1-1.2.2-1.9.2-2.5A383.5,383.5,0,0,0,352.1,134c-1-3.4-3-3.6-5.8-3.6H265.4c-1.6,0-3.1.2-4.6.3V239ZM260.8,369.1a18.8,18.8,0,0,0,3.1.4h83.4c3.1,0,4.1-1.5,4.9-4a379.1,379.1,0,0,0,15.5-80.2c.7-8,.9-16.1,1.4-24.3H260.8ZM20.9,238.9h87.6c1-36.6,5.9-72.7,16.3-108l-2.5-.4c-21.3,0-42.6-.1-63.9.1-1.7,0-4.1,1.8-5.1,3.4a208.3,208.3,0,0,0-26.2,66.2C24.5,212.8,22.9,225.7,20.9,238.9Zm456.4.1c0-1.6.1-2.8,0-3.9-2.2-36-12.7-69.4-30.8-100.6-1.8-3.1-3.8-4.1-7.3-4.1H379.7l-5.3.2c10.6,35.6,15.4,71.7,16.5,108.3ZM21.9,261a23.6,23.6,0,0,0,.1,2.9c2,36.9,12.8,71.1,31.7,102.7,1,1.6,3.9,2.8,5.9,2.8,20.2.2,40.3.1,60.5.1l4.8-.3c-10.6-35.5-15.4-71.6-16.5-108.2ZM374.4,369a13.2,13.2,0,0,0,2.5.5c21.3,0,42.6.1,63.9-.1a7.5,7.5,0,0,0,5.1-3.4,206.6,206.6,0,0,0,26.3-66.1c2.6-12.7,4.1-25.5,6.2-38.8H390.8C389.8,297.6,385,333.5,374.4,369ZM156.3,108.4h82.2v-86C194.2,35.3,174.6,70.5,156.3,108.4ZM260.8,23.1v85.2h81.7c-1.5-3.4-2.7-6.4-4.1-9.3-11.3-23.6-25-45.3-46.1-61.5C283,30.3,272.8,25,260.8,23.1Zm82.1,368.5H260.7v86.1C305,464.7,324.8,429.5,342.9,391.6Zm-104.3.1h-82c2.9,6.1,5.4,11.7,8.2,17.2,10.7,20.5,23.5,39.3,42.2,53.5,9.4,7.2,19.6,12.5,31.6,14.5Zm190.2-283C400,73.2,365.3,48.6,323.2,34.4c4.1,5.8,8.7,11,12.9,16.6,12.2,16.4,21.5,34.4,29.1,53.3.7,1.7,2.8,4.2,4.2,4.2C388.7,108.8,408.1,108.7,428.8,108.7Zm-.3,282.9-5.1-.3c-17.2,0-34.5.1-51.7-.1-3.7,0-5.4,1.2-6.7,4.6a222.7,222.7,0,0,1-24.5,46.9c-5.5,7.8-11.6,15.2-18.1,23.5C365.2,451.4,400,426.8,428.5,391.6Zm-357.9-.3c28.8,35.5,63.5,60.1,106.8,75.1-5.3-6.4-9.7-11.6-13.8-17-12.4-16.5-21.7-34.6-29.5-53.6-.7-1.8-2.7-4.3-4.1-4.3C110.7,391.2,91.3,391.3,70.6,391.3ZM177.3,33.6c-43.2,15-78,39.6-106.5,74.8l5.2.3c17.2,0,34.4-.1,51.7.1,3.7,0,5.3-1.3,6.6-4.6,7.5-19.2,17-37.3,29.4-53.7C167.7,45.1,172.2,40,177.3,33.6Z" transform="translate(0.3 0.1)"/></svg>