<?xml version="1.0" encoding="utf-8"?>
<!-- Generator: Adobe Illustrator 25.2.2, SVG Export Plug-In . SVG Version: 6.00 Build 0)  -->
<svg version="1.1" id="레이어_1" xmlns="http://www.w3.org/2000/svg" xmlns:xlink="http://www.w3.org/1999/xlink" x="0px"
	 y="0px" viewBox="0 0 500.5 499" style="enable-background:new 0 0 500.5 499;" xml:space="preserve">
<style type="text/css">
	.st0{fill:#D4D4D8;}
</style>
<path class="st0" d="M499.8,134.3V71.7c0.1-22.5-18.1-40.8-40.5-40.9l-67.3,0V20c0-11.3-9.2-20.5-20.5-20.5S351,8.7,351,20v10.8
	H148.1V20c0-11.3-9.2-20.5-20.5-20.5c-11.3,0-20.5,9.2-20.5,20.5v10.8H41c-22.5,0-40.8,18.3-40.8,40.9v386.9
	c0,22.5,18.3,40.9,40.8,40.9h297.1c89.1,0,161.7-72.7,161.7-162.1V165.6h0.5v-31.3H499.8z M468.5,165.6v171.7c0,3.5-0.1,7-0.4,10.5
	h-78.3c-22.5,0-40.8,18.3-40.8,40.9v79c-3.6,0.3-7.3,0.5-10.9,0.5H41c-5.3,0-9.6-4.3-9.6-9.6v-293H468.5z M113.1,87.4
	c3.9,3.9,9,6,14.5,6c0,0,0,0,0,0c11.3,0,20.5-9.2,20.5-20.5V62.1H351v10.8c0,11.3,9.2,20.5,20.5,20.5S392,84.2,392,72.9V62.1h67.1
	c5.2,0,9.5,4.3,9.5,9.5v62.7H31.5V71.7c0-5.3,4.3-9.6,9.6-9.6h66v10.8C107.1,78.4,109.2,83.5,113.1,87.4z"/>
</svg>
