<svg id="레이어_1" data-name="레이어 1" xmlns="http://www.w3.org/2000/svg" viewBox="0 0 500.5 499"><defs><style>.cls-1{fill:#d9d9d9;}</style></defs><path class="cls-1" d="M499.8,138.6v-70a35.7,35.7,0,0,0-35.7-35.8H389.3v-17a15,15,0,0,0-30,0v17h-220v-17a15,15,0,0,0-30,0v17H35.6A35.8,35.8,0,0,0-.2,68.6V464a35.8,35.8,0,0,0,35.8,35.8H340.1A159.7,159.7,0,0,0,499.8,340.1V158.6h.5v-20Zm-480-70A15.8,15.8,0,0,1,35.6,52.8h73.7v17a15,15,0,0,0,30,0v-17h220v17a15,15,0,1,0,30,0v-17h74.8a15.7,15.7,0,0,1,15.7,15.8v70H19.8ZM35.6,479.8A15.8,15.8,0,0,1,19.8,464V158.6h460V340.1a154.3,154.3,0,0,1-.9,16.7H393.1a35.8,35.8,0,0,0-35.8,35.8v86.1a139.3,139.3,0,0,1-17.2,1.1Z" transform="translate(0.2 -0.8)"/></svg>