<svg id="레이어_1" data-name="레이어 1" xmlns="http://www.w3.org/2000/svg" viewBox="0 0 1185.9 459.4"><defs><style>.cls-1{fill:#1e1e1e;}.cls-2{fill:#ffce29;}.cls-3{fill:#fff;}</style></defs><path class="cls-1" d="M538.5,126.8a150.2,150.2,0,0,1,42.3,5.7c13,3.9,24.2,9.3,33.5,16.5a74.3,74.3,0,0,1,21.9,26.1q7.8,15.5,7.8,35.4V365c0,8-2.7,13.8-8.3,17.4a34.7,34.7,0,0,1-37.5,0q-8.4-5.4-8.4-17.4V352.7h-.4a42.9,42.9,0,0,1-11,14.2,83.6,83.6,0,0,1-17.1,11.5,100.2,100.2,0,0,1-21.9,7.6,108.8,108.8,0,0,1-24.7,2.8c-28.5,0-50.5-6.5-65.8-19.5s-23.1-31.4-23.1-55.1v-7.6a88.2,88.2,0,0,1,5-30,57.9,57.9,0,0,1,16.6-24c7.8-6.8,17.9-12.1,30.5-15.9S506,231,524.7,231h59.9v-6.7c0-16.2-3.7-27.8-11.2-34.9s-19.2-10.7-35.4-10.7a116.3,116.3,0,0,0-60.8,17.1c-6.4,3.8-12.6,4.8-18.8,3.1s-11.2-5.8-15-12.1a29.5,29.5,0,0,1-4-18.8c.7-6.5,4.3-11.8,10.7-16,11.4-7.6,24.8-13.7,40.1-18.3A167.9,167.9,0,0,1,538.5,126.8ZM526.1,277.1q-23.7,0-33,9t-9.3,24.3v.9q0,27.6,35.7,27.6c18.7,0,33.4-3.2,44.2-9.5,7.6-4.4,13.1-9.7,16.4-15.7s5-14.1,5-24.3V277.1Z" transform="translate(-116.6 -20.7)"/><path class="cls-1" d="M899.3,158.5q-25.2-31.6-77-31.7a119.6,119.6,0,0,0-19.5,1.7,99.4,99.4,0,0,0-20,5.5,80.4,80.4,0,0,0-19,10.4,67.8,67.8,0,0,0-15.7,16.7v-7.2c0-8.2-2.9-14.3-8.8-18.3a35.5,35.5,0,0,0-20.2-5.9,34.6,34.6,0,0,0-19.7,5.9c-5.9,4-8.8,10.1-8.8,18.3v301c0,8.6,3.1,14.9,9.3,19a38,38,0,0,0,41.6,0c6-4.1,9-10.4,9-19V358.4a74.9,74.9,0,0,0,27.6,22.1c11.4,5.5,25.2,8.3,41.3,8.3s30.2-2.6,43.1-7.8a87.9,87.9,0,0,0,33-23.6q13.8-15.6,21.4-39.2t7.6-54.4V251.4Q924.5,190.1,899.3,158.5Z" transform="translate(-116.6 -20.7)"/><path class="cls-1" d="M992.5,32.2a36.3,36.3,0,0,1,20.9,6.2q9,6.1,9,19.5V362.2q0,13.4-9,19.5a38.5,38.5,0,0,1-41.9,0q-9-6.1-9-19.5V57.9q0-13.3,9-19.5A36.6,36.6,0,0,1,992.5,32.2Z" transform="translate(-116.6 -20.7)"/><path class="cls-1" d="M1187.9,126.8c17.1,0,32.6,2.6,46.6,7.7a103,103,0,0,1,36.1,21.8,96.4,96.4,0,0,1,23.5,35.2q8.4,21,8.4,48v1c0,14.9-3,25.2-8.8,30.9s-16.4,8.5-31.7,8.5H1127v1c0,17.1,5.3,31.1,15.9,41.8s26.6,16.2,47.8,16.2c13.3,0,25-1,35-3.1a148.5,148.5,0,0,0,30.6-10.2q9.6-4.4,18.6-1.2c6,2.1,10.4,6.4,13.3,13.1a28.8,28.8,0,0,1,1.9,19.2c-1.6,6.2-5.5,10.9-11.9,14.1a163.4,163.4,0,0,1-39.4,13.5q-21.5,4.5-50.4,4.5-57.2,0-88.5-31.1t-31.4-93.4V251.9q0-61.8,31.9-93.4T1187.9,126.8Zm-1,49.5q-29.9,0-44.9,15.7c-10,10.4-15,23.8-15,39.9v3.3h117.9v-4.7c0-15.5-4.4-28.5-13.3-38.8S1207.8,176.3,1186.9,176.3Z" transform="translate(-116.6 -20.7)"/><path class="cls-1" d="M396.5,76a6.2,6.2,0,0,1-.5,2.5,1.8,1.8,0,0,1-1.7,1.1H368.1a1.8,1.8,0,0,1-1.7-1.1,4.9,4.9,0,0,1-.6-2.5,4.8,4.8,0,0,1,.6-2.4,1.6,1.6,0,0,1,1.7-1.1h26.2a1.7,1.7,0,0,1,1.7,1.1A6,6,0,0,1,396.5,76Z" transform="translate(-116.6 -20.7)"/><path class="cls-1" d="M384.3,43.7a5.8,5.8,0,0,1,1,2.3,2,2,0,0,1-.9,2L361.2,65.1a2,2,0,0,1-2.1.3,5.1,5.1,0,0,1-2-1.6,5.2,5.2,0,0,1-1-2.3,1.9,1.9,0,0,1,.9-1.9l23.2-17.2a2,2,0,0,1,2.1-.3A6.2,6.2,0,0,1,384.3,43.7Z" transform="translate(-116.6 -20.7)"/><path class="cls-1" d="M357.2,21a5.7,5.7,0,0,1,2.1,1.3,2,2,0,0,1,.4,2.1l-9.1,27.4a1.9,1.9,0,0,1-1.6,1.4,5.2,5.2,0,0,1-4.7-1.4,2,2,0,0,1-.4-2.1L353,22.3a2.2,2.2,0,0,1,1.6-1.5A5.9,5.9,0,0,1,357.2,21Z" transform="translate(-116.6 -20.7)"/><path class="cls-1" d="M377.1,252.2a68.6,68.6,0,0,0-14.7-24.1,71.6,71.6,0,0,0-22.9-16,111.3,111.3,0,0,0-29.5-8.4c10.4-2.6,19.2-6.3,26.3-11.1a63.7,63.7,0,0,0,17.2-16.7,66.8,66.8,0,0,0,9.6-21,91.4,91.4,0,0,0,2.9-23.6v-5.9c0-29.9-9.1-52-27.5-66.3s-46.4-21.4-84.1-21.4h-96c-15.8,0-26.7,2.9-32.7,8.8s-9.1,16.6-9.1,32V347.1c0,15.4,3,26.1,9.1,32s16.9,8.9,32.7,8.9H269.6q57.6,0,85.1-24.9t27.6-69.7v-7.9C382.3,272.7,380.6,261.6,377.1,252.2Z" transform="translate(-116.6 -20.7)"/><path class="cls-2" d="M269.6,134.3c-.7-8.5-9.9-13.6-17.8-10.3l-.9.4a29.1,29.1,0,0,1-23.6,0l-.9-.4c-7.9-3.3-17.1,1.8-17.8,10.3v4.2c0,7.4,7.5,17.7,25.1,17.7h10.7c17.7,0,25.2-10.3,25.2-17.7v-4.2Z" transform="translate(-116.6 -20.7)"/><path class="cls-3" d="M239.4,159.9h-5.7c-21,0-28.9-13.1-28.9-21.4V134a16.2,16.2,0,0,1,7.7-12.3,17.3,17.3,0,0,1,15.3-1.2l1,.4a26.1,26.1,0,0,0,10.3,2.2,3.8,3.8,0,1,1-.1,7.6,35.5,35.5,0,0,1-13.2-2.8l-.9-.4a9.3,9.3,0,0,0-8.4.7,8.2,8.2,0,0,0-4.1,6.4c0,.3-.1.6-.1.8v3.1c0,5.8,6.7,13.9,21.4,13.9h5.7a3.8,3.8,0,1,1,0,7.5Z" transform="translate(-116.6 -20.7)"/><path class="cls-3" d="M242.6,120.9a3.8,3.8,0,0,1-3.8-3.8V105.7a3.8,3.8,0,0,1,7.5,0v11.4A3.8,3.8,0,0,1,242.6,120.9Z" transform="translate(-116.6 -20.7)"/><rect class="cls-3" x="84.4" y="59.8" width="17.6" height="25.21" rx="8.8"/><rect class="cls-3" x="151.2" y="59.8" width="17.6" height="25.21" rx="8.8"/></svg>