<svg id="레이어_1" data-name="레이어 1" xmlns="http://www.w3.org/2000/svg" viewBox="0 0 500 499.5"><defs><style>.cls-1{fill:#ffce29;}</style></defs><path class="cls-1" d="M455,40c2.8,0,5,2.5,5,5.7V455.3L296.9,287.4a65.2,65.2,0,0,0-47.4-20.1A66.3,66.3,0,0,0,202,287.5L40,455.2V45.7c0-3.2,2.2-5.7,5-5.7H455m0-40H45C20.1,0,0,20.5,0,45.7V463.8c.9,21.7,18.8,35.6,37.4,35.6A36.3,36.3,0,0,0,63.9,488L230.8,315.3a25.5,25.5,0,0,1,18.7-8,25.8,25.8,0,0,1,18.7,7.9L436.1,488.1a36.4,36.4,0,0,0,26.5,11.4c18.6,0,36.4-13.9,37.4-35.6V45.7C500,20.5,479.9,0,455,0Z" transform="translate(0 0)"/></svg>