<svg width="20" height="38" viewBox="0 0 20 38" fill="none" xmlns="http://www.w3.org/2000/svg">
<g clip-path="url(#clip0_16_17)">
<g opacity="0.7">
<path d="M20 38H6C5.21683 38.0133 4.43885 37.8705 3.71145 37.5799C2.98404 37.2894 2.32178 36.8569 1.76327 36.3077C1.20477 35.7585 0.761218 35.1036 0.458482 34.3812C0.155745 33.6588 -0.000112456 32.8833 6.08777e-08 32.1V6C6.08777e-08 4.4087 0.632141 2.88258 1.75736 1.75736C2.88258 0.632141 4.4087 0 6 0H20V38Z" fill="white"/>
</g>
<path d="M8.62906 11.5002C9.03695 11.5137 9.43468 11.631 9.78463 11.8409C10.1346 12.0509 10.4252 12.3467 10.6291 12.7002L13.3291 17.1002C13.6714 17.6931 13.8516 18.3656 13.8516 19.0502C13.8516 19.7348 13.6714 20.4073 13.3291 21.0002L10.6291 25.4002C10.4417 25.7676 10.1548 26.0749 9.80117 26.2871C9.44754 26.4992 9.04139 26.6078 8.62906 26.6002C7.99254 26.6002 7.38209 26.3474 6.932 25.8973C6.48192 25.4472 6.22906 24.8367 6.22906 24.2002L6.22906 13.9002C6.22906 13.2637 6.48192 12.6532 6.932 12.2032C7.38209 11.7531 7.99254 11.5002 8.62906 11.5002Z" fill="#7B4CFF"/>
<path d="M8.62916 25.6C8.25786 25.6 7.90177 25.4525 7.63922 25.1899C7.37666 24.9274 7.22916 24.5713 7.22916 24.2L7.22916 13.9C7.22916 13.5287 7.37666 13.1726 7.63921 12.9101C7.90177 12.6475 8.25786 12.5 8.62916 12.5C8.85792 12.5095 9.08011 12.5792 9.27326 12.7021C9.46642 12.825 9.62369 12.9968 9.72916 13.2L10.2292 14L12.4292 17.7C12.6749 18.1257 12.8043 18.6085 12.8043 19.1C12.8043 19.5915 12.6749 20.0743 12.4292 20.5L10.2292 24.1L9.72916 24.9C9.62369 25.1032 9.46642 25.275 9.27327 25.3979C9.08011 25.5208 8.85792 25.5905 8.62916 25.6ZM8.62916 27.6C9.19377 27.5951 9.74769 27.4455 10.2379 27.1653C10.7282 26.8852 11.1383 26.484 11.4292 26L11.9292 25.2L14.1292 21.5C14.5693 20.7585 14.8015 19.9122 14.8015 19.05C14.8015 18.1878 14.5693 17.3415 14.1292 16.6L11.9292 13L11.4292 12.2C11.1589 11.6907 10.756 11.2638 10.2632 10.9646C9.77031 10.6653 9.20574 10.5048 8.62916 10.5C8.17891 10.4861 7.73059 10.5646 7.31182 10.7306C6.89304 10.8965 6.51267 11.1465 6.19415 11.465C5.87562 11.7835 5.62568 12.1639 5.45972 12.5827C5.29376 13.0014 5.2153 13.4498 5.22916 13.9L5.22916 24.2C5.2153 24.6502 5.29376 25.0986 5.45972 25.5173C5.62568 25.9361 5.87562 26.3165 6.19415 26.635C6.51267 26.9535 6.89304 27.2035 7.31182 27.3694C7.73059 27.5354 8.17891 27.6139 8.62916 27.6Z" fill="white"/>
</g>
<defs>
<clipPath id="clip0_16_17">
<rect width="20" height="38" fill="white"/>
</clipPath>
</defs>
</svg>
