<svg id="레이어_1" data-name="레이어 1" xmlns="http://www.w3.org/2000/svg" viewBox="0 0 20 38"><defs><style>.cls-1{opacity:0.7;}.cls-2{fill:#fff;}.cls-3{fill:#7b4cff;}</style></defs><g class="cls-1"><path class="cls-2" d="M35.7,38.4h-14a5.9,5.9,0,0,1-6-5.9V6.4a6,6,0,0,1,6-6h14Z" transform="translate(-15.7 -0.4)"/></g><path class="cls-3" d="M27.1,27a2.4,2.4,0,0,1-2-1.2l-2.7-4.4a3.9,3.9,0,0,1,0-3.9l2.7-4.4a2.2,2.2,0,0,1,2-1.2,2.4,2.4,0,0,1,2.4,2.4V24.6A2.4,2.4,0,0,1,27.1,27Z" transform="translate(-15.7 -0.4)"/><path class="cls-2" d="M27.1,12.9a1.4,1.4,0,0,1,1.4,1.4V24.6A1.4,1.4,0,0,1,27.1,26a1.3,1.3,0,0,1-1.1-.7l-.5-.8-2.2-3.7a2.8,2.8,0,0,1,0-2.8l2.2-3.6.5-.8a1.3,1.3,0,0,1,1.1-.7m0-2h0a3.3,3.3,0,0,0-2.8,1.6l-.5.8L21.6,17a4.8,4.8,0,0,0,0,4.9l2.2,3.6.5.8A3.2,3.2,0,0,0,27.1,28a3.3,3.3,0,0,0,3.4-3.4V14.3a3.3,3.3,0,0,0-3.4-3.4Z" transform="translate(-15.7 -0.4)"/></svg>