<svg id="레이어_1" data-name="레이어 1" xmlns="http://www.w3.org/2000/svg" viewBox="0 0 500 500"><defs><style>.cls-1{fill:#7b4cff;}</style></defs><path class="cls-1" d="M450,25a25,25,0,0,1,25,25V450a25,25,0,0,1-25,25H50a25,25,0,0,1-25-25V50A25,25,0,0,1,50,25H450m0-25H50A50,50,0,0,0,0,50V450a50,50,0,0,0,50,50H450a50,50,0,0,0,50-50V50A50,50,0,0,0,450,0Z"/><rect class="cls-1" x="74" y="224" width="352" height="50" rx="25" transform="translate(602.8 248.3) rotate(135)"/><rect class="cls-1" x="74" y="224" width="352" height="50" rx="25" transform="translate(249.3 -103.8) rotate(45)"/></svg>