<svg width="20" height="38" viewBox="0 0 20 38" fill="none" xmlns="http://www.w3.org/2000/svg">
<g clip-path="url(#clip0_16_17)">
<g opacity="0.7">
<path d="M20 38H6C5.21683 38.0133 4.43885 37.8705 3.71145 37.5799C2.98404 37.2894 2.32178 36.8569 1.76327 36.3077C1.20477 35.7585 0.761218 35.1036 0.458482 34.3812C0.155745 33.6588 -0.000112456 32.8833 6.08777e-08 32.1V6C6.08777e-08 4.4087 0.632141 2.88258 1.75736 1.75736C2.88258 0.632141 4.4087 0 6 0H20V38Z" fill="white"/>
</g>
<path d="M11.4 26.5999C10.9921 26.5864 10.5944 26.4691 10.2444 26.2592C9.89446 26.0492 9.60383 25.7534 9.39999 25.3999L6.69999 20.9999C6.35769 20.407 6.17749 19.7345 6.17749 19.0499C6.17749 18.3653 6.35769 17.6928 6.69999 17.0999L9.39999 12.6999C9.58738 12.3325 9.87425 12.0252 10.2279 11.813C10.5815 11.6008 10.9877 11.4923 11.4 11.4999C12.0365 11.4999 12.647 11.7527 13.097 12.2028C13.5471 12.6529 13.8 13.2634 13.8 13.8999V24.1999C13.8 24.8364 13.5471 25.4468 13.097 25.8969C12.647 26.347 12.0365 26.5999 11.4 26.5999Z" fill="#66B6FF"/>
<path d="M11.3999 12.5001C11.7712 12.5001 12.1273 12.6476 12.3898 12.9101C12.6524 13.1727 12.7999 13.5288 12.7999 13.9001V24.2001C12.7999 24.5714 12.6524 24.9275 12.3898 25.19C12.1273 25.4526 11.7712 25.6001 11.3999 25.6001C11.1711 25.5906 10.9489 25.5209 10.7558 25.398C10.5626 25.2751 10.4054 25.1033 10.2999 24.9001L9.79989 24.1001L7.59989 20.4001C7.35414 19.9744 7.22476 19.4916 7.22476 19.0001C7.22476 18.5086 7.35414 18.0258 7.59989 17.6001L9.79989 14.0001L10.2999 13.2001C10.4054 12.9969 10.5626 12.8251 10.7558 12.7022C10.9489 12.5793 11.1711 12.5096 11.3999 12.5001ZM11.3999 10.5001C10.8353 10.505 10.2814 10.6546 9.79113 10.9348C9.3009 11.2149 8.89074 11.6161 8.59989 12.1001L8.09989 12.9001L5.89989 16.6001C5.45979 17.3416 5.22754 18.1879 5.22754 19.0501C5.22754 19.9123 5.45979 20.7586 5.89989 21.5001L8.09989 25.1001L8.59989 25.9001C8.87015 26.4094 9.27301 26.8363 9.76588 27.1355C10.2587 27.4348 10.8233 27.5953 11.3999 27.6001C11.8501 27.614 12.2985 27.5355 12.7172 27.3695C13.136 27.2036 13.5164 26.9536 13.8349 26.6351C14.1534 26.3166 14.4034 25.9362 14.5693 25.5174C14.7353 25.0987 14.8138 24.6503 14.7999 24.2001V13.9001C14.8138 13.4498 14.7353 13.0015 14.5693 12.5828C14.4034 12.164 14.1534 11.7836 13.8349 11.4651C13.5164 11.1466 13.136 10.8966 12.7172 10.7307C12.2985 10.5647 11.8501 10.4862 11.3999 10.5001Z" fill="white"/>
</g>
<defs>
<clipPath id="clip0_16_17">
<rect width="20" height="38" fill="white"/>
</clipPath>
</defs>
</svg>
