<svg id="레이어_1" data-name="레이어 1" xmlns="http://www.w3.org/2000/svg" viewBox="0 0 459.3 536.6"><defs><style>.cls-1{fill:#fff;}.cls-2{fill:#1e1e1e;}.cls-3{fill:#ffce29;}</style></defs><path class="cls-1" d="M454.2,287.9l-31.5-18.1.5-35.4A138.9,138.9,0,0,0,284.3,95.5H244.9A138.9,138.9,0,0,0,106,234.4l.5,35.4L75.1,287.9a69.7,69.7,0,0,0-25.5,95.3h0a47,47,0,0,0,57.6,20.3l.2,84.2a47.1,47.1,0,0,1-1.4,11.2c-11.8,40.4,34.6,80.6,78.3,83.3a34.7,34.7,0,0,0,9.6-.8l14.5-3.1a73.3,73.3,0,0,1,14.7-1.5h83a72.6,72.6,0,0,1,14.7,1.5l14.5,3.1a35.1,35.1,0,0,0,9.7.8c43.6-2.7,90-42.9,78.2-83.3a42.4,42.4,0,0,1-1.3-11.2V403.5a47.1,47.1,0,0,0,57.7-20.3h0A69.9,69.9,0,0,0,454.2,287.9Z" transform="translate(-35 -51.3)"/><path class="cls-2" d="M186.2,587.5h-2.3c-27.8-1.7-57.2-18-73.1-40.5-11-15.7-14.6-33.3-9.9-49.4a40.5,40.5,0,0,0,1.2-9.8l-.2-77.1A52.7,52.7,0,0,1,45,385.8,75.1,75.1,0,0,1,72.4,283.3l28.8-16.5-.5-32.4c0-79.5,64.7-144.2,144.2-144.2h39.4c79.5,0,144.2,64.7,144.2,144.2l-.5,32.4,28.8,16.5a75.1,75.1,0,0,1,27.4,102.5,52.7,52.7,0,0,1-56.9,24.8l-.2,77.1a40.5,40.5,0,0,0,1.2,9.8c4.7,16.1,1.2,33.7-9.9,49.4-15.8,22.5-45.2,38.8-73.1,40.5a38.3,38.3,0,0,1-11.1-.8l-14.5-3.1a62.2,62.2,0,0,0-13.6-1.4h-83a62.8,62.8,0,0,0-13.6,1.4L195,586.6A45.3,45.3,0,0,1,186.2,587.5ZM112.5,395.8v91.9a48.1,48.1,0,0,1-1.5,12.5v.2c-4.9,16.6,1.8,31.2,8.3,40.4,14.1,20.1,40.3,34.6,65.2,36.1a26,26,0,0,0,8.2-.7l14.5-3a76.4,76.4,0,0,1,15.8-1.7h83a76.4,76.4,0,0,1,15.8,1.7l14.5,3a26.3,26.3,0,0,0,8.2.7c24.9-1.5,51.1-16,65.2-36.1,6.5-9.2,13.2-23.8,8.4-40.4v-.2a52.8,52.8,0,0,1-1.5-12.5l.2-91.9,7.1,2.7a41.9,41.9,0,0,0,51.2-18,64.4,64.4,0,0,0-23.6-88l-34.1-19.7.5-38.5c0-73.6-59.9-133.5-133.6-133.5H244.9A133.7,133.7,0,0,0,111.3,234.4l.5,38.4L77.7,292.5a64.4,64.4,0,0,0-23.6,88,41.9,41.9,0,0,0,51.2,18Z" transform="translate(-35 -51.3)"/><path class="cls-2" d="M204.5,587.9H81.1a9.2,9.2,0,0,1-9.1-9.2h0c0-27.1,38.9-49.1,49.1-49.1h43.4a49.2,49.2,0,0,1,49.2,49.1h0A9.2,9.2,0,0,1,204.5,587.9Z" transform="translate(-35 -51.3)"/><path class="cls-2" d="M325.6,587.9H449a9.2,9.2,0,0,0,9.1-9.2h0c0-27.1-38.9-49.1-49.2-49.1H365.6a49.2,49.2,0,0,0-49.2,49.1h0A9.2,9.2,0,0,0,325.6,587.9Z" transform="translate(-35 -51.3)"/><path class="cls-3" d="M290,221.5c-.8-9.4-10.9-15.1-19.6-11.4l-1,.4a31.8,31.8,0,0,1-26.1,0l-1-.4c-8.7-3.7-18.8,2-19.6,11.4v4.6c0,8.1,8.3,19.4,27.8,19.4h11.8c19.4,0,27.8-11.3,27.8-19.4v-3.4C290.1,222.2,290,221.8,290,221.5Z" transform="translate(-35 -51.3)"/><path class="cls-2" d="M256.7,250.8h-6.2c-21.5,0-33.1-12.8-33.1-24.7v-3.4a9.7,9.7,0,0,1,.1-1.7,18.6,18.6,0,0,1,9-14.4,19.9,19.9,0,0,1,17.9-1.4l1,.5a29.7,29.7,0,0,0,11,2.3,5.3,5.3,0,0,1,0,10.5h-.1a38.7,38.7,0,0,1-15-3.1l-1-.4a9,9,0,0,0-8.3.6,7.9,7.9,0,0,0-4,6.3v4.2c0,5.8,6.9,14.1,22.5,14.1h6.2a5.3,5.3,0,1,1,0,10.6Z" transform="translate(-35 -51.3)"/><path class="cls-2" d="M260.2,207.7a5.3,5.3,0,0,1-5.3-5.3V189.9a5.3,5.3,0,0,1,10.6,0v12.5A5.3,5.3,0,0,1,260.2,207.7Z" transform="translate(-35 -51.3)"/><rect class="cls-2" x="179.4" y="110.9" width="19.4" height="27.78" rx="9.7"/><rect class="cls-2" x="253" y="110.9" width="19.4" height="27.78" rx="9.7"/><path class="cls-2" d="M297.7,61.5a7,7,0,0,1,1.6,1.9,1.8,1.8,0,0,1-.3,2l-15.9,20a1.9,1.9,0,0,1-1.8.7,5.1,5.1,0,0,1-2.2-1.1,4.7,4.7,0,0,1-1.6-1.9,1.8,1.8,0,0,1,.2-2L293.6,61a2.1,2.1,0,0,1,1.9-.6A5.7,5.7,0,0,1,297.7,61.5Z" transform="translate(-35 -51.3)"/><path class="cls-2" d="M265.5,51.3a4.8,4.8,0,0,1,2.4.6,1.9,1.9,0,0,1,1,1.8l-1,28.2a2,2,0,0,1-1.1,1.8,3.9,3.9,0,0,1-2.4.5,4.8,4.8,0,0,1-2.4-.6,1.8,1.8,0,0,1-.9-1.8l.9-28.2a2.2,2.2,0,0,1,1.1-1.8A4.7,4.7,0,0,1,265.5,51.3Z" transform="translate(-35 -51.3)"/><path class="cls-2" d="M231.7,58.2a4,4,0,0,1,2.3-.8,1.8,1.8,0,0,1,1.8.9L251.3,82a2,2,0,0,1,.1,2,4.4,4.4,0,0,1-1.7,1.9,4,4,0,0,1-2.3.8,1.8,1.8,0,0,1-1.8-.9L230.1,62.2a2,2,0,0,1-.1-2.1A5.1,5.1,0,0,1,231.7,58.2Z" transform="translate(-35 -51.3)"/></svg>