<svg id="레이어_1" data-name="레이어 1" xmlns="http://www.w3.org/2000/svg" viewBox="0 0 500 500"><defs><style>.cls-1{fill:#7b4cff;}.cls-2{fill:#fff;}</style></defs><rect class="cls-1" x="66.2" y="117.6" width="365.6" height="50.93" rx="20.5"/><path class="cls-2" d="M411.3,123.1a15,15,0,0,1,15,15V148a15,15,0,0,1-15,15H86.7a15,15,0,0,1-15-15v-9.9a15,15,0,0,1,15-15H411.3m0-11H86.7a26,26,0,0,0-26,26V148a26.1,26.1,0,0,0,26,26H411.3a26.1,26.1,0,0,0,26-26v-9.9a26,26,0,0,0-26-26Z" transform="translate(0 0)"/><rect class="cls-1" x="67.6" y="203.6" width="318.8" height="50.93" rx="20.5"/><path class="cls-2" d="M365.9,209.1a15,15,0,0,1,15,15v10a15,15,0,0,1-15,15H88.1a15,15,0,0,1-15-15v-10a15,15,0,0,1,15-15H365.9m0-11H88.1a26.1,26.1,0,0,0-26,26v10a26.1,26.1,0,0,0,26,26H365.9a26.1,26.1,0,0,0,26-26v-10a26.1,26.1,0,0,0-26-26Z" transform="translate(0 0)"/><rect class="cls-1" x="67.6" y="286.9" width="250.7" height="50.93" rx="20.5"/><path class="cls-2" d="M297.8,292.4a15,15,0,0,1,15,15v9.9a15,15,0,0,1-15,15H88.1a15,15,0,0,1-15-15v-9.9a15,15,0,0,1,15-15H297.8m0-11H88.1a26,26,0,0,0-26,26v9.9a26.1,26.1,0,0,0,26,26H297.8a26.1,26.1,0,0,0,26-26v-9.9a26,26,0,0,0-26-26Z" transform="translate(0 0)"/><path class="cls-1" d="M389.8,25c47,0,85.2,41.4,85.2,92.2v195c0,50.9-38.2,92.3-85.2,92.3H213.9l-7.1,13.2-26.9,50.6c-3.1,5.8-7.7,6.7-10.1,6.7s-7-.9-10.1-6.7l-26.9-50.6-7.1-13.2H110.2c-47,0-85.2-41.4-85.2-92.3v-195C25,66.4,63.2,25,110.2,25H389.8m0-25H110.2C49.3,0,0,52.5,0,117.2v195C0,377,49.3,429.5,110.2,429.5h.5l27,50.6c7,13.3,19.6,19.9,32.1,19.9s25-6.6,32.1-19.9l27-50.6H389.8C450.7,429.5,500,377,500,312.2v-195C500,52.5,450.7,0,389.8,0Z" transform="translate(0 0)"/></svg>