<svg id="레이어_1" data-name="레이어 1" xmlns="http://www.w3.org/2000/svg" viewBox="0 0 500 468"><defs><style>.cls-1{fill:#ffce29;}</style></defs><rect class="cls-1" x="62.5" y="103" width="372" height="39.93" rx="15"/><rect class="cls-1" x="64" y="176.1" width="322.9" height="39.93" rx="15"/><rect class="cls-1" x="64" y="249.3" width="251.5" height="39.93" rx="15"/><path class="cls-1" d="M390.2,41c47,0,85.2,38,85.2,84.7V308.3c0,46.7-38.2,84.7-85.2,84.7H214.7l-7.2,12.6L180.6,453a12,12,0,0,1-20.8,0l-27-47.4L125.6,393h-15c-47,0-85.2-38-85.2-84.7V125.7C25.4,79,63.6,41,110.6,41H390.2m0-25H110.6C49.7,16,.4,65.1.4,125.7V308.3C.4,368.9,49.7,418,110.6,418h.5L138,465.4a37.1,37.1,0,0,0,64.3,0l27-47.4H390.2c60.8,0,110.2-49.1,110.2-109.7V125.7C500.4,65.1,451,16,390.2,16Z" transform="translate(-0.4 -16)"/></svg>