<svg id="레이어_1" data-name="레이어 1" xmlns="http://www.w3.org/2000/svg" viewBox="0 0 500 500"><defs><style>.cls-1{fill:#ffce29;}</style></defs><path class="cls-1" d="M451,25a25,25,0,0,1,25,25V450a25,25,0,0,1-25,25H51a25,25,0,0,1-25-25V50A25,25,0,0,1,51,25H451m0-25H51A50,50,0,0,0,1,50V450a50,50,0,0,0,50,50H451a50,50,0,0,0,50-50V50A50,50,0,0,0,451,0Z" transform="translate(-1 0)"/><rect class="cls-1" x="75" y="224" width="352" height="50" rx="25" transform="translate(603.6 247.6) rotate(135)"/><rect class="cls-1" x="75" y="224" width="352" height="50" rx="25" transform="translate(248.6 -104.6) rotate(45)"/></svg>