<svg id="레이어_1" data-name="레이어 1" xmlns="http://www.w3.org/2000/svg" viewBox="0 0 497.3 436.9"><defs><style>.cls-1{fill:#ffce29;}</style></defs><path class="cls-1" d="M364.3,31.8a132.6,132.6,0,0,0-114,68.3A132.5,132.5,0,0,0,136.4,31.8C59,35.1-1.1,100.4,1.8,177.8c0,94.2,99.1,197,182.3,266.8a102.9,102.9,0,0,0,132.5,0C399.8,374.8,498.9,272,498.9,177.8,501.8,100.4,441.7,35.1,364.3,31.8ZM290,412.9a61.5,61.5,0,0,1-79.3,0C104.3,323.6,43.2,237.9,43.2,177.8A99.4,99.4,0,0,1,136.4,73.2a99.4,99.4,0,0,1,93.2,104.6,20.7,20.7,0,1,0,41.4,0A99.4,99.4,0,0,1,364.3,73.2a99.4,99.4,0,0,1,93.2,104.6c0,60.1-61.1,145.8-167.5,235Z" transform="translate(-1.7 -31.8)"/></svg>