<svg id="레이어_1" data-name="레이어 1" xmlns="http://www.w3.org/2000/svg" viewBox="0 0 500 500"><defs><style>.cls-1{fill:#ffce29;}.cls-2{fill:#fff;}</style></defs><path class="cls-1" d="M450.4,25.3a25,25,0,0,1,25,25v400a25.1,25.1,0,0,1-25,25H50.4a25.1,25.1,0,0,1-25-25V50.3a25,25,0,0,1,25-25h400m0-25H50.4a50,50,0,0,0-50,50v400a50,50,0,0,0,50,50h400a50,50,0,0,0,50-50V50.3a50,50,0,0,0-50-50Z" transform="translate(-0.4 -0.3)"/><rect class="cls-2" x="10" y="360" width="480" height="5"/><polygon class="cls-1" points="500 350 0 350 0 375 500 375 500 350 500 350"/><path class="cls-1" d="M422.9,305.3l-49.1-85-49.1-85.1a19.9,19.9,0,0,0-34.5,0l-49.1,85.1-4.5,7.8-25.2-43.5a14.9,14.9,0,0,0-26,0l-37,64-37,64.1a15.1,15.1,0,0,0,13,22.6H405.7A20,20,0,0,0,422.9,305.3Z" transform="translate(-0.4 -0.3)"/></svg>