<svg id="레이어_1" data-name="레이어 1" xmlns="http://www.w3.org/2000/svg" viewBox="0 0 500 500"><defs><style>.cls-1{fill:#d9d9d9;}.cls-2{fill:#fff;}</style></defs><path class="cls-1" d="M450.1,24.8a25.1,25.1,0,0,1,25,25v400a25.1,25.1,0,0,1-25,25H50.1a25,25,0,0,1-25-25V49.8a25,25,0,0,1,25-25h400m0-25H50.1a50,50,0,0,0-50,50v400a50,50,0,0,0,50,50h400a50,50,0,0,0,50-50V49.8a50,50,0,0,0-50-50Z" transform="translate(-0.1 0.2)"/><rect class="cls-2" x="10" y="360" width="480" height="5"/><polygon class="cls-1" points="500 350 0 350 0 375 500 375 500 350 500 350"/><path class="cls-1" d="M422.6,304.9l-49.1-85.1-49.1-85a20,20,0,0,0-34.6,0l-49,85-4.6,7.8-25.1-43.5a15,15,0,0,0-26,0l-37,64.1-37,64a15,15,0,0,0,13,22.6H405.3A19.9,19.9,0,0,0,422.6,304.9Z" transform="translate(-0.1 0.2)"/></svg>