<svg id="레이어_1" data-name="레이어 1" xmlns="http://www.w3.org/2000/svg" viewBox="0 0 214 284.1"><defs><style>.cls-1{fill:#7b4cff;}.cls-2{fill:#fff;}.cls-3{fill:#1e1e1e;}</style></defs><path class="cls-1" d="M252.1,222.8c0,43.2-52.7,118.5-84.8,158.4a28.5,28.5,0,0,1-44.4,0C90.8,341.3,38.1,266,38.1,222.8c0-60.8,46.3-115,107-115S252.1,162,252.1,222.8Z" transform="translate(-38.1 -107.8)"/><circle class="cls-2" cx="107" cy="107.8" r="71.7"/><rect class="cls-3" x="73.5" y="73.5" width="14" height="20" rx="6.4"/><rect class="cls-3" x="126.5" y="73.5" width="14" height="20" rx="6.4"/><path class="cls-3" d="M142.1,244.3h-4.5c-16.7,0-23-10.5-23-17v-2.5a4.1,4.1,0,0,1,.1-1.1,12.4,12.4,0,0,1,6.1-9.8,13.6,13.6,0,0,1,12.1-.9l.8.3a20.8,20.8,0,0,0,8.2,1.7,3.1,3.1,0,0,1,3,3.1,3.1,3.1,0,0,1-3,2.9h-.1a27.3,27.3,0,0,1-10.5-2.1l-.7-.4a7.5,7.5,0,0,0-6.7.5,7,7,0,0,0-3.3,5.2v3.1c0,4.5,5.3,11,17,11h4.5a2.9,2.9,0,0,1,3,3A3,3,0,0,1,142.1,244.3Z" transform="translate(-38.1 -107.8)"/><path class="cls-3" d="M144.6,213.3a3.1,3.1,0,0,1-3-3v-9a3,3,0,0,1,3-3,2.9,2.9,0,0,1,3,3v9A3,3,0,0,1,144.6,213.3Z" transform="translate(-38.1 -107.8)"/></svg>