<svg id="레이어_1" data-name="레이어 1" xmlns="http://www.w3.org/2000/svg" viewBox="0 0 497.3 497.3"><defs><style>.cls-1{fill:#fff;}</style></defs><path class="cls-1" d="M172.5,42a131.4,131.4,0,1,1-93,38.5,131,131,0,0,1,93-38.5m0-40A171.5,171.5,0,1,0,344,173.5,171.5,171.5,0,0,0,172.5,2Z" transform="translate(-1 -2)"/><path class="cls-1" d="M358.2,294.3l-64.4,64.4a17.8,17.8,0,0,1-25.1,0h0a17.7,17.7,0,0,1,0-25.2l64.4-64.4a17.6,17.6,0,0,1,25.1,0h0A17.7,17.7,0,0,1,358.2,294.3Z" transform="translate(-1 -2)"/><rect class="cls-1" x="378.4" y="303.2" width="59.9" height="212.23" rx="15" transform="translate(-170.8 406.6) rotate(-45)"/></svg>