<svg id="레이어_1" data-name="레이어 1" xmlns="http://www.w3.org/2000/svg" viewBox="0 0 310 449"><defs><style>.cls-1{fill:#ffce29;}.cls-2{fill:none;stroke:#ffce29;stroke-miterlimit:10;stroke-width:25px;}.cls-3{fill:#fff;}</style></defs><rect class="cls-1" x="210" width="100" height="100" rx="50"/><rect class="cls-1" x="210" y="349" width="100" height="100" rx="50"/><path class="cls-2" d="M349.5,76.2,146.2,237.4a18.8,18.8,0,0,0,.1,29.5L349.5,427.2" transform="translate(-89.5 -28.2)"/><circle class="cls-3" cx="50" cy="224" r="40"/><path class="cls-1" d="M139.5,222.2a30,30,0,1,1-30,30,30,30,0,0,1,30-30m0-20h0a50,50,0,0,0-50,50h0a50,50,0,0,0,50,50h0a50,50,0,0,0,50-50h0a50,50,0,0,0-50-50Z" transform="translate(-89.5 -28.2)"/></svg>