<svg id="레이어_1" data-name="레이어 1" xmlns="http://www.w3.org/2000/svg" viewBox="0 0 494.3 447.9"><defs><style>.cls-1{fill:#ffce29;}.cls-2{fill:#fff;}</style></defs><rect class="cls-1" x="74" y="143.9" width="220" height="30" rx="15"/><rect class="cls-1" x="74" y="198.9" width="220" height="30" rx="15"/><rect class="cls-1" x="74" y="253.9" width="172" height="30" rx="15"/><rect class="cls-1" x="74" y="308.9" width="108" height="30" rx="15"/><path class="cls-1" d="M294.6,108A62.5,62.5,0,0,1,357,170.4V379.6A62.5,62.5,0,0,1,294.6,442H85.4A62.5,62.5,0,0,1,23,379.6V170.4A62.5,62.5,0,0,1,85.4,108H294.6m0-20H85.4A82.4,82.4,0,0,0,3,170.4V379.6A82.4,82.4,0,0,0,85.4,462H294.6A82.4,82.4,0,0,0,377,379.6V170.4A82.4,82.4,0,0,0,294.6,88Z" transform="translate(-3 -14.1)"/><path class="cls-1" d="M261.8,299.4a10.7,10.7,0,0,1-7.4-3L215.1,257a10.4,10.4,0,0,1,0-14.8L434.5,22.7a10.6,10.6,0,0,1,7.5-3.1,10.4,10.4,0,0,1,7.4,3.1L488.7,62a10.6,10.6,0,0,1,0,14.9L269.3,296.4A10.9,10.9,0,0,1,261.8,299.4Z" transform="translate(-3 -14.1)"/><path class="cls-2" d="M442,25.1a5,5,0,0,1,3.5,1.5l39.3,39.3a5,5,0,0,1,0,7.1L265.4,292.5a5,5,0,0,1-3.6,1.4,4.9,4.9,0,0,1-3.5-1.4l-39.4-39.4a5,5,0,0,1,0-7L438.4,26.6a5.1,5.1,0,0,1,3.6-1.5m0-11a15.9,15.9,0,0,0-11.3,4.7L211.2,238.3a15.9,15.9,0,0,0,0,22.6l39.3,39.4a16,16,0,0,0,11.3,4.6,15.8,15.8,0,0,0,11.3-4.6L492.6,80.8a16.1,16.1,0,0,0,0-22.7L453.3,18.8A16.1,16.1,0,0,0,442,14.1Z" transform="translate(-3 -14.1)"/><path class="cls-1" d="M238.6,322.6a10.3,10.3,0,0,1-7.4-3l-39.4-39.4a10.6,10.6,0,0,1,0-14.8l6.2-6.2a10.6,10.6,0,0,1,7.5-3.1,10.4,10.4,0,0,1,7.4,3.1l39.3,39.3a10.6,10.6,0,0,1,0,14.9l-6.2,6.2A10.1,10.1,0,0,1,238.6,322.6Z" transform="translate(-3 -14.1)"/><path class="cls-2" d="M205.5,261.6a5,5,0,0,1,3.5,1.5l39.3,39.3a5,5,0,0,1,0,7.1l-6.1,6.2a5,5,0,0,1-3.6,1.4,4.7,4.7,0,0,1-3.5-1.4l-39.4-39.4a5,5,0,0,1,0-7l6.2-6.2a5.1,5.1,0,0,1,3.6-1.5m0-11a15.9,15.9,0,0,0-11.3,4.7l-6.2,6.2a15.9,15.9,0,0,0,0,22.6l39.3,39.4a16.2,16.2,0,0,0,22.6,0l6.2-6.2a16.1,16.1,0,0,0,0-22.7l-39.3-39.3a16.1,16.1,0,0,0-11.3-4.7Z" transform="translate(-3 -14.1)"/><path class="cls-1" d="M177.4,350.2A15,15,0,0,1,163,331.4l10.2-37.9a15,15,0,0,1,14.4-11,14.7,14.7,0,0,1,10.5,4.3l27.8,27.8a14.9,14.9,0,0,1-6.7,24.9l-37.9,10.1A13.2,13.2,0,0,1,177.4,350.2Z" transform="translate(-3 -14.1)"/><path class="cls-2" d="M187.6,288a9.1,9.1,0,0,1,6.6,2.7l13.9,13.9L222,318.5a9.4,9.4,0,0,1-4.2,15.7l-19,5-19,5.1a6.7,6.7,0,0,1-2.4.4,9.4,9.4,0,0,1-9-11.8l5-19,5.1-19a9.3,9.3,0,0,1,9.1-6.9m0-11h0a20.4,20.4,0,0,0-19.7,15.1L162.8,311l-5.1,19a20.4,20.4,0,0,0,19.7,25.7,24.1,24.1,0,0,0,5.3-.7l19-5.1,18.9-5.1a20.4,20.4,0,0,0,9.2-34.1l-13.9-13.9L202,282.9a20.5,20.5,0,0,0-14.4-5.9Z" transform="translate(-3 -14.1)"/></svg>